<?xml version="1.0" standalone="no"?>
<!DOCTYPE svg PUBLIC "-//W3C//DTD SVG 20010904//EN"
 "http://www.w3.org/TR/2001/REC-SVG-20010904/DTD/svg10.dtd">
<svg version="1.0" xmlns="http://www.w3.org/2000/svg"
 width="800.000000pt" height="600.000000pt" viewBox="0 0 800.000000 600.000000"
 preserveAspectRatio="xMidYMid meet">

<g transform="translate(0.000000,600.000000) scale(0.100000,-0.100000)"
fill="#000000" stroke="none">
<path d="M3495 5323 c-22 -3 -44 -9 -50 -14 -7 -7 -5 -9 4 -7 21 4 58 -241 39
-253 -7 -5 12 -6 42 -2 30 3 62 10 70 15 12 8 12 8 -2 4 -11 -3 -18 0 -18 7 0
7 -9 65 -19 129 -16 106 -16 118 -2 121 20 6 -7 5 -64 0z"/>
<path d="M3853 5301 c-38 -24 -51 -47 -59 -103 -8 -54 14 -110 52 -135 21 -13
48 -18 106 -18 l78 -1 0 46 c-1 38 -2 42 -12 25 -36 -66 -93 -85 -122 -43 -22
31 -22 168 0 209 13 26 20 30 52 27 31 -3 40 -9 59 -43 l23 -40 0 45 0 45 -73
3 c-58 2 -78 -1 -104 -17z"/>
<path d="M3298 5292 c-58 -17 -83 -31 -52 -28 14 1 25 -21 51 -104 37 -117 39
-136 19 -143 -20 -8 -28 4 -15 20 16 18 -7 45 -35 41 -15 -2 -22 -12 -24 -30
-5 -42 33 -56 92 -34 69 26 75 52 38 175 -21 71 -26 103 -19 110 13 13 16 13
-55 -7z"/>
<path d="M4139 5276 c13 -16 -42 -252 -58 -248 -7 1 -10 -1 -7 -6 3 -5 25 -12
49 -15 23 -3 49 -8 57 -10 8 -2 12 -2 8 0 -11 6 -10 37 3 89 11 44 12 44 48
38 20 -4 37 -8 39 -9 2 -2 -2 -30 -9 -64 -9 -42 -18 -61 -29 -62 -8 0 12 -7
45 -14 66 -15 89 -17 64 -7 -16 7 -10 43 36 239 4 16 10 21 23 17 14 -5 14 -4
2 4 -18 12 -130 27 -113 15 8 -6 8 -22 1 -61 -11 -55 -20 -60 -74 -46 -19 5
-21 10 -14 37 4 18 11 44 14 59 5 21 10 26 24 21 9 -3 14 -3 10 1 -11 13 -129
34 -119 22z"/>
<path d="M2964 5197 c-3 -8 1 -73 9 -145 8 -87 10 -135 3 -142 -5 -5 5 -4 23
3 17 6 26 14 19 16 -19 6 -28 23 -28 54 0 22 7 31 35 44 35 17 35 16 65 -12
23 -22 27 -31 18 -42 -9 -11 -7 -12 13 -4 61 24 112 51 97 51 -9 0 -63 43
-120 95 -102 94 -124 107 -134 82z m55 -111 l33 -34 -30 -16 c-27 -14 -31 -14
-36 0 -6 16 -8 84 -3 84 2 0 18 -15 36 -34z"/>
<path d="M4485 5033 c-67 -70 -104 -102 -115 -98 -10 4 -11 3 -5 -3 6 -5 21
-13 35 -17 17 -4 21 -3 11 3 -10 8 -7 16 15 41 28 30 31 31 67 19 35 -11 37
-13 37 -55 0 -34 -4 -43 -17 -44 -10 0 11 -11 46 -25 35 -14 66 -22 69 -19 3
3 0 5 -7 5 -10 0 -11 30 -6 141 6 115 5 143 -6 150 -8 5 -16 8 -19 7 -3 0 -50
-47 -105 -105z m55 -12 l0 -50 -32 11 c-18 6 -35 13 -37 15 -4 3 59 73 66 73
2 0 3 -22 3 -49z"/>
<path d="M2650 5044 c-68 -46 -78 -54 -54 -48 15 3 35 -19 91 -97 61 -85 71
-105 60 -117 -6 -8 26 9 73 39 47 30 90 58 97 62 9 6 7 17 -9 42 -28 49 -37
51 -31 7 4 -31 0 -44 -20 -68 -14 -16 -27 -27 -30 -24 -9 11 -134 186 -141
198 -5 8 -1 19 10 27 37 28 8 14 -46 -21z"/>
<path d="M4787 5030 c16 -17 -125 -232 -147 -224 -25 9 1 -11 55 -41 28 -15
45 -22 38 -15 -9 10 -4 24 24 66 30 46 38 52 54 43 24 -12 24 -15 -6 -64 -33
-54 -32 -81 5 -100 38 -20 54 -19 71 3 13 15 12 16 -4 3 -29 -23 -33 -3 -7 45
21 37 23 47 12 64 -11 19 -10 20 12 14 19 -4 31 1 50 20 50 49 35 74 -84 147
-47 28 -80 46 -73 39z m113 -88 c0 -10 -8 -29 -17 -42 -27 -40 -45 -48 -71
-31 -11 7 -7 19 19 59 28 41 37 48 51 41 10 -5 18 -18 18 -27z"/>
<path d="M2414 4887 c-2 -7 23 -70 56 -140 33 -71 57 -133 54 -140 -4 -7 5 -1
19 12 28 25 38 42 13 21 -12 -9 -18 -4 -35 28 l-20 39 29 28 30 28 40 -18 c34
-15 38 -20 27 -33 -23 -29 26 4 61 41 20 20 27 34 19 34 -8 0 -71 25 -140 56
-135 61 -145 64 -153 44z m90 -97 c25 -12 46 -23 46 -25 0 -2 -13 -13 -28 -24
l-29 -20 -21 45 c-12 24 -20 44 -18 44 2 0 24 -9 50 -20z"/>
<path d="M5063 4828 c8 -23 -159 -202 -181 -193 -12 5 -13 3 -2 -10 18 -21 98
-84 83 -64 -10 13 3 30 81 108 65 65 98 91 107 86 17 -10 17 -10 -45 46 -27
24 -47 36 -43 27z"/>
<path d="M3617 4764 c-4 -5 -24 -7 -43 -5 -19 1 -66 -3 -105 -9 -55 -10 -69
-15 -69 -30 0 -22 -26 -34 -34 -14 -3 8 0 14 6 14 6 0 9 3 5 6 -3 3 -12 2 -19
-2 -7 -5 -21 -10 -31 -11 -29 -5 -176 -64 -190 -76 -6 -7 -16 -12 -22 -12 -5
0 -29 -11 -53 -24 -29 -17 -41 -30 -37 -41 3 -9 -1 -36 -8 -60 -12 -42 -15
-45 -45 -44 -17 1 -29 -2 -27 -7 3 -4 -4 -14 -15 -22 -13 -9 -22 -28 -24 -49
-3 -31 -29 -85 -49 -99 -15 -11 66 -66 90 -61 8 2 10 -3 7 -13 -3 -8 -11 -12
-16 -8 -11 6 -8 -14 7 -64 6 -17 3 -23 -9 -23 -22 0 -20 -8 6 -30 22 -18 22
-19 5 -54 -22 -46 -22 -43 13 -51 27 -6 30 -10 30 -46 0 -42 23 -99 40 -99 19
0 10 -38 -12 -52 -20 -14 -21 -17 -8 -33 20 -24 23 -135 5 -178 -15 -37 -12
-47 17 -47 14 0 18 -8 18 -39 0 -64 -11 -103 -27 -97 -8 3 -12 2 -9 -3 3 -5
-6 -12 -21 -16 -17 -4 -29 -2 -34 7 -7 10 -9 9 -9 -3 0 -21 -24 -31 -39 -16
-9 9 -40 1 -70 -20 -3 -2 4 -10 15 -19 17 -14 17 -15 1 -10 -12 4 -27 -5 -47
-27 l-29 -32 14 40 c13 38 12 41 -8 57 -19 15 -20 18 -4 18 9 0 17 5 17 11 0
6 13 24 29 39 17 17 30 43 33 63 3 29 -2 37 -43 70 -41 32 -48 35 -54 20 -3
-10 -1 -19 4 -21 6 -2 8 -9 5 -14 -4 -6 -2 -8 4 -4 6 3 13 2 17 -4 4 -6 11 -8
16 -5 8 6 39 -17 39 -29 0 -7 -43 -1 -58 8 -7 4 -12 3 -12 -2 0 -6 7 -12 15
-16 8 -3 15 -15 15 -26 0 -12 -4 -18 -10 -15 -5 3 -10 -3 -10 -13 0 -11 -7
-23 -16 -26 -23 -9 -26 -8 -18 7 5 8 2 8 -9 -2 -24 -19 -21 -33 6 -26 16 5 18
4 8 -3 -8 -6 -15 -21 -16 -34 -1 -12 -6 -21 -11 -18 -5 3 -7 14 -5 24 2 16 -2
15 -27 -9 -17 -15 -28 -34 -25 -42 3 -7 0 -13 -5 -13 -6 0 -14 16 -18 35 -5
30 -10 35 -35 35 -16 0 -29 -4 -29 -9 0 -5 -13 -16 -30 -25 -18 -8 -30 -10
-30 -4 0 6 -11 8 -25 6 -22 -5 -24 -2 -21 21 7 53 18 80 31 75 7 -3 16 -1 20
5 8 14 -1 14 -82 -4 -96 -22 -104 -25 -98 -36 4 -5 -1 -9 -11 -9 -15 0 -16
-12 -11 -117 3 -65 13 -158 22 -208 32 -178 122 -402 223 -553 57 -85 141
-184 151 -178 4 3 13 1 21 -5 12 -7 12 -9 2 -9 -15 0 26 -58 42 -59 4 -1 17
-13 29 -27 56 -72 355 -252 398 -241 10 3 20 -1 23 -9 5 -13 116 -52 166 -58
14 -2 45 -9 70 -17 71 -21 406 -18 490 5 36 9 83 22 105 27 58 14 98 30 111
45 6 7 25 16 42 19 51 9 137 50 223 107 63 42 76 54 62 60 -15 5 -14 7 6 7 13
1 36 12 52 25 28 24 29 25 6 29 -17 3 -15 5 9 6 62 2 262 244 349 420 89 181
155 415 155 553 0 37 -1 38 -55 53 -30 9 -57 21 -61 26 -13 22 10 23 67 2 l60
-22 -3 57 c-3 56 -3 56 -38 63 -19 4 -39 4 -44 -1 -5 -5 -19 -1 -34 10 -33 26
-46 25 -90 -7 -62 -47 -98 -85 -84 -90 6 -3 10 -9 6 -14 -3 -5 7 -9 23 -10 15
0 37 -4 48 -9 16 -7 12 -9 -20 -10 l-40 -1 53 -18 c62 -22 64 -23 56 -45 -13
-34 -93 -3 -94 37 -1 6 -6 2 -13 -10 -11 -19 -14 -20 -31 -7 -26 18 -36 18
-36 -2 0 -8 -4 -12 -10 -9 -5 3 -10 13 -10 22 0 9 -9 24 -21 34 l-21 18 21 22
c24 26 26 36 9 41 -7 3 -6 12 6 30 l16 25 41 -20 c35 -17 42 -18 55 -5 19 19
8 75 -16 83 -10 3 -20 15 -23 25 -3 11 -13 20 -22 20 -14 0 -15 -3 -5 -15 7
-9 8 -15 2 -15 -17 0 -21 28 -6 41 13 11 12 15 -9 33 -13 12 -24 25 -23 31 2
22 -34 16 -43 -7 -10 -26 2 -48 26 -48 9 0 13 -6 9 -15 -3 -8 0 -15 6 -15 8 0
9 -3 2 -10 -8 -8 -19 -7 -38 1 -22 10 -29 10 -41 -2 -9 -9 -11 -19 -5 -29 8
-12 14 -12 45 -1 44 16 58 6 28 -19 -12 -9 -20 -20 -17 -22 2 -3 -3 -11 -12
-19 -14 -11 -16 -10 -12 11 2 13 -3 25 -11 28 -9 3 -11 -1 -7 -15 3 -10 0 -28
-8 -39 -13 -16 -18 -17 -36 -6 -35 21 -104 26 -119 9 -15 -18 -41 -12 -41 10
0 13 3 13 15 3 9 -7 18 -10 21 -7 3 3 -3 10 -14 16 -15 8 -23 7 -32 -4 -7 -9
-21 -13 -35 -9 -15 4 -24 0 -29 -11 -5 -13 -8 -14 -19 -3 -19 18 -19 42 1 26
11 -10 17 -9 27 5 6 9 16 13 21 9 4 -4 2 1 -5 11 -18 24 -30 21 -23 -5 3 -14
1 -19 -6 -14 -12 7 -7 107 6 136 7 16 10 60 14 220 2 71 8 103 21 123 9 14 17
40 17 57 0 25 5 33 29 41 18 7 28 16 25 24 -3 7 -1 16 5 20 6 3 11 1 11 -6 0
-7 3 -10 6 -7 3 3 0 15 -7 26 -11 17 -10 24 2 38 12 16 12 17 -3 11 -12 -4
-15 -2 -11 9 3 8 12 13 20 10 8 -3 11 -2 8 3 -3 5 -1 12 5 16 5 3 7 17 4 31
-3 13 -3 32 2 41 4 10 8 20 9 23 7 28 17 49 23 49 36 -5 42 12 10 26 -13 6
-25 19 -27 30 -2 11 -8 24 -15 28 -8 6 -8 10 1 14 10 3 10 10 1 26 -6 12 -11
34 -10 50 1 22 -3 27 -14 23 -9 -3 -24 -1 -35 4 -14 8 -19 7 -19 -2 0 -7 -9 0
-19 16 -11 16 -17 35 -14 42 3 8 0 14 -6 14 -6 0 -10 10 -8 22 1 17 -10 29
-53 55 -30 18 -59 32 -65 30 -5 -2 -18 4 -29 14 -10 10 -51 29 -90 43 -109 38
-117 40 -110 22 4 -11 0 -16 -15 -16 -22 0 -29 26 -9 32 27 9 -149 38 -197 32
-38 -4 -46 -3 -35 5 12 9 3 11 -37 9 -39 -2 -53 -7 -53 -18 0 -12 -2 -13 -9
-1 -10 15 -92 27 -104 15z m-130 -39 c7 -21 2 -25 -25 -18 -12 3 -22 12 -22
19 0 19 39 18 47 -1z m83 -15 c0 -10 -26 -20 -34 -13 -14 14 -5 31 14 26 11
-3 20 -9 20 -13z m430 5 c0 -9 -9 -15 -25 -15 -16 0 -25 6 -25 15 0 9 9 15 25
15 16 0 25 -6 25 -15z m-92 -7 c-6 -18 -28 -21 -28 -4 0 9 7 16 16 16 9 0 14
-5 12 -12z m-581 -25 c4 -11 -26 -27 -35 -19 -2 3 -2 12 2 21 6 18 27 16 33
-2z m403 7 c0 -5 -2 -10 -4 -10 -3 0 -8 5 -11 10 -3 6 -1 10 4 10 6 0 11 -4
11 -10z m-90 -10 c0 -13 -11 -13 -30 0 -12 8 -11 10 8 10 12 0 22 -4 22 -10z
m190 1 c0 -5 -12 -11 -27 -14 -26 -5 -26 -4 -8 9 22 16 35 18 35 5z m320 -1
c8 -5 11 -12 8 -16 -10 -9 -38 3 -38 16 0 12 10 13 30 0z m-893 -37 c2 -6 -3
-13 -12 -16 -10 -5 -15 0 -15 14 0 21 21 22 27 2z m443 7 c0 -7 6 -7 18 -1 21
11 48 -2 37 -18 -5 -9 -10 -9 -21 0 -11 9 -17 9 -29 -1 -8 -7 -15 -10 -15 -7
0 3 -3 12 -6 21 -3 9 -1 16 5 16 6 0 11 -5 11 -10z m525 -38 c-9 -9 -35 8 -35
24 0 16 2 16 20 -1 11 -10 18 -20 15 -23z m-727 3 c-3 -3 -9 2 -12 12 -6 14
-5 15 5 6 7 -7 10 -15 7 -18z m-298 -15 c0 -5 -9 -14 -21 -20 -19 -11 -20 -10
-9 9 11 22 30 29 30 11z m346 -27 c-4 -4 -11 -1 -16 7 -16 25 -11 35 7 17 9
-9 13 -20 9 -24z m77 10 c-5 -12 -7 -12 -14 -1 -13 20 -11 28 5 22 8 -3 12
-12 9 -21z m290 7 c-3 -11 -9 -17 -14 -15 -10 7 -1 35 11 35 5 0 6 -9 3 -20z
m-328 -10 c3 -5 1 -10 -4 -10 -6 0 -11 5 -11 10 0 6 2 10 4 10 3 0 8 -4 11
-10z m285 0 c0 -5 -4 -10 -10 -10 -5 0 -10 5 -10 10 0 6 5 10 10 10 6 0 10 -4
10 -10z m399 -4 c11 -14 6 -15 -27 -7 -4 1 8 21 12 21 2 0 9 -6 15 -14z m66 4
c3 -5 1 -10 -4 -10 -6 0 -11 5 -11 10 0 6 2 10 4 10 3 0 8 -4 11 -10z m-934
-27 c13 -16 12 -17 -3 -4 -17 13 -22 21 -14 21 2 0 10 -8 17 -17z m119 -9 c0
-8 -4 -12 -10 -9 -5 3 -10 10 -10 16 0 5 5 9 10 9 6 0 10 -7 10 -16z m160 6
c0 -5 -5 -10 -11 -10 -5 0 -7 5 -4 10 3 6 8 10 11 10 2 0 4 -4 4 -10z m254 -5
c-4 -8 -10 -12 -15 -9 -11 6 -2 24 11 24 5 0 7 -7 4 -15z m-779 -5 c3 -5 4
-10 1 -10 -2 0 -12 -3 -20 -6 -12 -5 -15 -2 -10 10 7 18 20 21 29 6z m854 -16
c-6 -7 -15 -11 -21 -8 -5 3 -4 12 3 20 6 7 15 11 21 8 5 -3 4 -12 -3 -20z
m-558 1 c-1 -15 -24 -12 -29 3 -3 9 2 13 12 10 10 -1 17 -7 17 -13z m39 5 c0
-5 -4 -10 -10 -10 -5 0 -10 5 -10 10 0 6 5 10 10 10 6 0 10 -4 10 -10z m250 0
c0 -5 -5 -10 -11 -10 -5 0 -7 5 -4 10 3 6 8 10 11 10 2 0 4 -4 4 -10z m230 6
c0 -3 -4 -8 -10 -11 -5 -3 -10 -1 -10 4 0 6 5 11 10 11 6 0 10 -2 10 -4z m400
-6 c0 -5 -5 -10 -11 -10 -5 0 -7 5 -4 10 3 6 8 10 11 10 2 0 4 -4 4 -10z m-65
-10 c3 -5 2 -10 -4 -10 -5 0 -13 5 -16 10 -3 6 -2 10 4 10 5 0 13 -4 16 -10z
m-725 -4 c0 -11 -19 -15 -25 -6 -3 5 1 10 9 10 9 0 16 -2 16 -4z m300 -6 c0
-5 -2 -10 -4 -10 -3 0 -8 5 -11 10 -3 6 -1 10 4 10 6 0 11 -4 11 -10z m-549
-17 c13 -16 12 -17 -3 -4 -10 7 -18 15 -18 17 0 8 8 3 21 -13z m109 -14 c0 -6
-4 -7 -10 -4 -5 3 -10 11 -10 16 0 6 5 7 10 4 6 -3 10 -11 10 -16z m572 -1
c-7 -7 -12 -8 -12 -2 0 6 3 14 7 17 3 4 9 5 12 2 2 -3 -1 -11 -7 -17z m103 12
c-3 -5 -12 -10 -18 -10 -7 0 -6 4 3 10 19 12 23 12 15 0z m275 -4 c0 -3 -4 -8
-10 -11 -5 -3 -10 -1 -10 4 0 6 5 11 10 11 6 0 10 -2 10 -4z m-1270 -22 c0 -8
-4 -12 -10 -9 -5 3 -10 10 -10 16 0 5 5 9 10 9 6 0 10 -7 10 -16z m380 6 c0
-5 -5 -10 -11 -10 -5 0 -7 5 -4 10 3 6 8 10 11 10 2 0 4 -4 4 -10z m455 0 c3
-5 1 -10 -4 -10 -6 0 -11 5 -11 10 0 6 2 10 4 10 3 0 8 -4 11 -10z m-539 -27
c-7 -7 -26 7 -26 19 0 6 6 6 15 -2 9 -7 13 -15 11 -17z m634 17 c0 -5 -4 -10
-10 -10 -5 0 -10 5 -10 10 0 6 5 10 10 10 6 0 10 -4 10 -10z m281 -3 c-1 -12
-15 -9 -19 4 -3 6 1 10 8 8 6 -3 11 -8 11 -12z m-956 -6 c7 -12 -12 -24 -25
-16 -11 7 -4 25 10 25 5 0 11 -4 15 -9z m719 0 c3 -5 -1 -12 -10 -15 -20 -8
-29 -1 -19 13 8 13 22 14 29 2z m-366 -36 c-3 -14 1 -30 8 -36 8 -6 14 -19 14
-28 0 -13 -2 -13 -9 -2 -6 9 -18 12 -36 7 -22 -6 -26 -11 -22 -31 2 -14 0 -25
-4 -25 -5 0 -9 -5 -9 -11 0 -6 -8 -21 -18 -34 -15 -19 -18 -38 -16 -106 2 -46
0 -88 -5 -93 -8 -10 -11 -27 -12 -68 0 -10 -5 -18 -10 -18 -6 0 -9 -10 -7 -22
2 -13 -5 -32 -15 -43 -14 -15 -15 -21 -5 -32 16 -15 58 -6 58 13 0 8 -7 14
-15 14 -8 0 -15 -4 -15 -10 0 -5 -5 -10 -11 -10 -8 0 -8 5 1 15 7 8 20 15 30
15 14 0 17 7 14 35 -1 19 1 35 6 35 5 0 7 12 5 26 -2 19 1 24 13 19 12 -5 12
-1 -3 15 -10 11 -13 20 -7 20 5 0 9 11 7 25 -1 16 3 25 11 25 8 0 14 4 14 10
0 5 -7 7 -16 3 -15 -6 -15 -4 0 19 9 14 15 32 14 39 -2 8 7 15 20 17 35 5 27
32 -10 32 -31 1 -32 1 -12 13 12 7 19 17 17 23 -3 9 19 11 46 5 2 -1 -2 -8 -9
-17 -11 -12 -11 -15 0 -12 9 2 14 -8 15 -29 2 -24 -2 -33 -13 -33 -14 0 -14
-1 0 -12 20 -17 27 -39 18 -63 -4 -11 -2 -29 5 -40 7 -11 12 -41 10 -67 -1
-26 2 -45 6 -42 5 3 9 1 9 -5 0 -5 -4 -13 -10 -16 -16 -10 -11 -22 13 -30 19
-6 19 -8 5 -12 -19 -5 -25 -22 -8 -24 6 -1 16 -2 23 -3 23 -4 37 15 27 34 -6
10 -10 30 -10 44 0 13 -6 31 -12 38 -7 7 -14 31 -16 53 -5 64 -14 217 -15 252
0 26 -3 30 -14 21 -7 -6 -16 -8 -20 -4 -3 3 -1 6 5 6 7 0 11 3 11 8 -4 25 2
32 20 23 10 -6 21 -8 24 -5 3 3 16 -2 29 -10 14 -9 28 -13 33 -9 4 5 5 2 1 -4
-8 -15 17 -57 27 -46 4 3 7 -1 7 -10 0 -10 -7 -17 -15 -17 -17 0 -19 -11 -5
-28 6 -6 7 -10 4 -8 -3 3 -16 1 -29 -4 -14 -5 -26 -5 -34 3 -21 21 -24 -4 -7
-58 17 -54 44 -69 31 -17 -5 21 -4 23 8 14 10 -9 16 -9 25 0 9 9 12 9 12 0 0
-7 7 -12 15 -12 17 0 21 26 4 32 -7 2 -5 9 5 17 11 9 16 10 16 2 0 -6 8 -11
18 -11 16 -1 16 -1 0 -11 -25 -14 -22 -39 3 -39 18 0 19 -2 9 -15 -9 -10 -9
-15 -1 -15 19 0 12 -28 -11 -46 l-23 -16 24 5 24 6 -22 -22 c-15 -14 -25 -18
-28 -11 -5 15 -43 5 -43 -11 0 -7 8 -16 18 -20 15 -6 14 -8 -8 -20 -14 -8 -20
-14 -15 -15 6 0 16 -9 23 -21 12 -19 11 -19 -8 -9 -14 8 -20 8 -20 0 0 -6 -4
-9 -8 -6 -4 2 -8 -4 -8 -14 0 -10 3 -17 7 -14 4 2 12 -2 18 -10 9 -11 6 -13
-19 -10 -33 4 -41 -11 -10 -19 26 -7 36 -35 22 -57 -8 -14 -8 -19 2 -23 19 -7
26 1 26 30 0 18 5 23 18 21 9 -2 16 -10 14 -17 -1 -7 2 -10 8 -6 6 4 18 1 27
-7 15 -12 15 -11 3 9 -8 12 -18 19 -22 17 -11 -7 -10 4 3 27 6 11 16 19 22 16
8 -3 12 14 12 55 0 40 5 64 14 71 12 10 13 8 8 -12 l-6 -23 20 21 c11 11 23
21 27 21 4 0 25 -16 47 -35 l40 -34 -37 -36 c-21 -20 -38 -40 -38 -44 0 -5 11
-16 25 -25 29 -19 35 -75 10 -96 -8 -7 -13 -16 -10 -20 2 -4 -5 -16 -15 -28
-11 -12 -20 -26 -20 -31 0 -12 -36 -24 -49 -17 -13 8 -42 97 -35 107 3 5 0 9
-6 9 -7 0 -14 -9 -17 -20 -3 -11 -12 -20 -19 -20 -8 0 -14 -5 -14 -10 0 -6 6
-10 13 -9 25 3 38 -1 32 -11 -3 -5 3 -18 15 -30 20 -20 29 -77 10 -65 -6 4 -7
-1 -3 -11 5 -13 3 -16 -10 -11 -8 3 -17 1 -20 -6 -3 -9 -10 -9 -28 0 l-24 11
28 7 c25 7 26 9 11 20 -19 13 -11 35 12 35 17 0 19 16 2 22 -7 3 -23 4 -36 3
-20 -2 -22 1 -16 24 3 14 7 32 7 39 0 6 6 12 14 12 7 0 13 5 13 11 0 5 -5 7
-10 4 -6 -4 -17 -1 -25 5 -12 10 -15 9 -15 -7 0 -11 -8 -27 -17 -35 -37 -32
-87 17 -64 61 6 11 8 26 5 34 -3 9 -1 24 5 34 12 24 3 37 -31 41 -26 2 -28 0
-34 -47 l-6 -49 -39 0 c-38 -1 -39 0 -39 34 0 20 -5 44 -10 55 -10 18 -13 18
-41 4 -24 -13 -28 -19 -19 -35 13 -24 13 -43 0 -35 -6 4 -3 -10 7 -30 21 -43
12 -64 -36 -80 -18 -6 -29 -14 -24 -19 4 -5 3 -6 -4 -2 -7 4 -11 12 -9 19 1 7
1 9 -1 5 -3 -5 -11 -8 -18 -8 -8 0 -17 -4 -20 -10 -3 -6 1 -7 9 -4 9 3 16 2
16 -3 0 -6 -14 -14 -32 -19 -17 -5 -33 -15 -36 -23 -3 -8 0 -11 7 -7 6 4 11 1
11 -8 0 -9 -4 -16 -8 -16 -5 0 -9 -7 -9 -15 0 -8 4 -12 8 -10 4 3 9 -2 13 -10
6 -17 -7 -19 -35 -5 -25 14 -25 62 1 85 14 13 17 21 9 26 -13 7 -4 29 12 29 6
0 8 -4 4 -9 -3 -5 0 -13 6 -17 8 -4 9 -3 5 4 -4 7 -2 12 3 12 6 0 11 6 11 14
0 27 -70 -6 -70 -34 -1 -22 -25 -50 -43 -50 -13 0 -29 26 -32 51 -1 16 -56 69
-72 69 -17 1 -17 1 0 11 9 6 15 15 11 20 -3 6 -12 3 -19 -8 -12 -16 -11 -20 7
-34 30 -23 17 -49 -24 -49 -50 0 -59 11 -56 64 3 50 12 57 61 51 15 -2 27 1
27 6 0 6 4 8 8 5 5 -3 16 6 26 20 11 13 25 24 33 24 8 0 11 4 8 10 -3 5 -1 20
6 32 8 17 3 15 -19 -9 l-30 -32 -4 24 c-3 14 -1 22 3 19 5 -3 6 8 3 23 -4 24
0 32 30 52 34 22 37 23 61 7 23 -15 24 -15 18 1 -4 13 -3 15 6 7 6 -6 13 -19
15 -30 3 -10 7 -27 11 -36 5 -12 2 -18 -8 -18 -29 0 -23 -44 11 -79 17 -18 29
-26 26 -17 -5 12 -2 15 10 10 21 -8 21 -44 0 -44 -8 0 -12 -5 -9 -10 4 -6 11
-8 16 -5 5 4 9 1 9 -6 0 -6 -8 -9 -20 -6 -12 3 -20 0 -20 -8 0 -17 35 -8 52
12 6 8 11 29 10 46 -1 18 5 41 14 52 13 17 16 18 24 5 7 -11 5 -16 -5 -18 -16
-4 -21 -32 -5 -32 16 0 27 34 20 60 -4 14 -11 24 -17 23 -6 -1 -8 10 -5 25 5
26 4 26 -15 10 -18 -17 -19 -16 -18 5 0 12 4 28 9 36 7 11 5 13 -7 8 -11 -4
-20 3 -28 22 -7 16 -18 27 -24 25 -6 -3 -12 6 -14 18 -7 46 -3 82 8 86 6 2 11
11 11 19 0 11 7 14 25 11 13 -3 22 -1 19 3 -3 5 -1 9 4 9 13 0 33 -25 26 -32
-2 -3 2 -8 10 -11 15 -6 35 26 51 81 6 22 4 23 -27 20 -26 -2 -33 0 -32 14 1
10 -2 16 -6 13 -5 -3 -8 15 -7 39 1 24 5 40 8 34 3 -5 15 1 25 15 21 26 64 53
64 39 0 -4 7 -17 15 -28 12 -15 14 -15 9 -2 -4 11 4 27 21 44 15 15 24 33 21
41 -7 17 1 33 16 33 6 0 8 -11 6 -25z m-353 -15 c3 -5 -1 -10 -9 -10 -9 0 -16
5 -16 10 0 6 4 10 9 10 6 0 13 -4 16 -10z m645 0 c0 -5 -2 -10 -4 -10 -3 0 -8
5 -11 10 -3 6 -1 10 4 10 6 0 11 -4 11 -10z m65 0 c-3 -5 -11 -10 -16 -10 -6
0 -7 5 -4 10 3 6 11 10 16 10 6 0 7 -4 4 -10z m-815 -62 c0 -5 -9 -4 -20 2
-11 6 -20 12 -20 14 0 2 9 2 20 -1 11 -3 20 -9 20 -15z m66 1 c9 -15 -23 -10
-35 5 -10 12 -8 13 9 9 11 -3 23 -9 26 -14z m804 6 c-7 -8 -22 -15 -33 -15
-25 0 -12 16 18 23 11 3 22 5 24 6 2 0 -2 -6 -9 -14z m-416 -11 c5 -14 4 -15
-9 -4 -17 14 -19 20 -6 20 5 0 12 -7 15 -16z m-747 -26 c-3 -8 -6 -5 -6 6 -1
11 2 17 5 13 3 -3 4 -12 1 -19z m74 -12 c-13 -16 -5 -60 9 -51 4 3 10 -2 14
-10 3 -8 1 -15 -4 -15 -14 0 -40 30 -40 46 0 20 20 57 27 50 3 -3 0 -12 -6
-20z m270 8 c12 -15 11 -16 -11 -9 -35 10 -49 25 -23 25 11 0 27 -7 34 -16z
m839 7 c0 -9 -41 -23 -49 -16 -3 4 28 20 47 24 1 1 2 -3 2 -8z m-850 -82 c0
-10 -12 -11 -34 -3 -25 10 -19 22 9 16 14 -2 25 -8 25 -13z m853 4 c-7 -2 -19
-2 -25 0 -7 3 -2 5 12 5 14 0 19 -2 13 -5z m-923 -13 c0 -5 -6 -10 -14 -10 -8
0 -18 5 -21 10 -3 6 3 10 14 10 12 0 21 -4 21 -10z m693 -14 c-10 -13 -21 -22
-24 -20 -4 2 -9 -3 -13 -11 -3 -8 -12 -15 -21 -15 -26 0 -16 18 20 36 20 9 38
20 41 25 3 5 7 9 10 9 3 0 -3 -11 -13 -24z m-387 -8 c4 -4 0 -10 -9 -14 -9 -3
-13 -12 -10 -21 4 -11 2 -14 -5 -9 -7 4 -12 12 -12 18 0 6 -7 16 -15 22 -13 9
-10 11 14 11 16 0 33 -3 37 -7z m-253 -5 c-7 -2 -19 -2 -25 0 -7 3 -2 5 12 5
14 0 19 -2 13 -5z m870 0 c-7 -2 -19 -2 -25 0 -7 3 -2 5 12 5 14 0 19 -2 13
-5z m-669 -38 c-7 -16 -24 -21 -24 -6 0 8 7 13 27 20 1 1 0 -6 -3 -14z m-326
-30 c3 -3 -4 -4 -16 -2 -12 2 -24 6 -28 10 -4 3 4 4 16 2 12 -2 25 -7 28 -10z
m122 -5 c0 -5 -7 -10 -15 -10 -8 0 -15 5 -15 10 0 6 7 10 15 10 8 0 15 -4 15
-10z m875 0 c-3 -5 -10 -10 -16 -10 -5 0 -9 5 -9 10 0 6 7 10 16 10 8 0 12 -4
9 -10z m-925 -30 c-8 -5 -19 -10 -25 -10 -5 0 -3 5 5 10 8 5 20 10 25 10 6 0
3 -5 -5 -10z m50 -10 c0 -5 -8 -10 -17 -10 -15 0 -16 2 -3 10 19 12 20 12 20
0z m880 -6 c0 -2 -7 -4 -15 -4 -8 0 -15 4 -15 10 0 5 7 7 15 4 8 -4 15 -8 15
-10z m-716 -79 c-3 -7 -14 -11 -25 -8 -22 6 -24 14 -7 31 14 14 39 -3 32 -23z
m566 21 c0 -15 -23 -28 -52 -31 -10 -1 -15 2 -12 6 3 5 12 9 20 9 8 0 13 4 10
9 -4 5 0 12 6 14 22 9 28 7 28 -7z m-740 -46 c-8 -5 -19 -10 -25 -10 -5 0 -3
5 5 10 8 5 20 10 25 10 6 0 3 -5 -5 -10z m901 -7 c13 -17 13 -17 -6 -3 -11 8
-22 16 -24 17 -2 2 0 3 6 3 6 0 17 -8 24 -17z m-1138 -50 c-7 -2 -19 -2 -25 0
-7 3 -2 5 12 5 14 0 19 -2 13 -5z m1274 -85 c-2 -18 -4 -6 -4 27 0 33 2 48 4
33 2 -15 2 -42 0 -60z m-1142 -475 c-4 -296 -9 -540 -11 -542 -4 -4 -8 537 -4
572 1 10 -4 25 -11 33 -9 12 -9 13 2 9 19 -7 25 221 6 244 -10 12 -9 13 1 7
10 -6 13 -1 12 20 -4 59 0 194 6 194 3 0 3 -242 -1 -537z m119 498 c-2 -3 -12
3 -22 13 -16 17 -16 18 5 5 12 -7 20 -15 17 -18z m921 -131 l0 -74 -32 -7
c-41 -8 -55 2 -49 34 6 35 14 47 32 47 8 0 14 5 14 10 0 6 -5 10 -11 10 -6 0
-8 7 -5 16 3 8 2 12 -4 9 -6 -3 -10 1 -10 10 0 11 5 15 15 12 8 -4 17 -2 21 4
3 6 11 8 17 6 8 -2 12 -30 12 -77z m102 18 c-2 -13 -4 -5 -4 17 -1 22 1 32 4
23 2 -10 2 -28 0 -40z m-687 -78 c0 -5 -2 -10 -4 -10 -3 0 -8 5 -11 10 -3 6
-1 10 4 10 6 0 11 -4 11 -10z m90 0 c0 -5 -4 -10 -9 -10 -6 0 -13 5 -16 10 -3
6 1 10 9 10 9 0 16 -4 16 -10z m170 6 c0 -3 -4 -8 -10 -11 -5 -3 -10 -1 -10 4
0 6 5 11 10 11 6 0 10 -2 10 -4z m347 -328 c-1 -62 -3 -12 -3 112 0 124 2 174
3 113 2 -62 2 -164 0 -225z m-924 302 c-3 -11 -9 -23 -14 -26 -10 -6 -12 29
-2 39 13 13 21 7 16 -13z m817 -32 c0 -5 -7 -8 -15 -8 -10 0 -15 10 -15 27 0
26 1 26 15 7 8 -10 15 -22 15 -26z m-447 25 c-7 -2 -19 -2 -25 0 -7 3 -2 5 12
5 14 0 19 -2 13 -5z m107 -18 c0 -2 -8 -3 -18 -2 -10 0 -19 7 -19 13 0 9 5 10
19 3 10 -5 18 -12 18 -14z m-60 -18 c-10 -9 -14 -9 -17 1 -3 6 -10 9 -15 6 -7
-4 -8 -2 -4 4 4 6 13 9 21 5 9 -3 15 1 16 8 0 12 2 12 6 1 3 -8 0 -19 -7 -25z
m135 0 c-2 -12 -2 -16 1 -9 3 6 10 9 15 6 6 -3 20 2 31 13 l20 18 -20 -39
c-11 -21 -18 -44 -15 -52 3 -8 1 -14 -3 -14 -5 0 -10 -12 -10 -27 -3 -53 -15
-107 -27 -122 -9 -12 -9 -13 1 -7 7 4 12 1 12 -8 0 -9 -6 -16 -12 -17 -10 0
-10 -2 0 -6 6 -2 12 -18 12 -34 0 -17 5 -39 10 -50 7 -13 7 -19 0 -19 -5 0
-10 -6 -10 -14 0 -9 -7 -12 -20 -9 -23 6 -26 19 -7 26 7 3 5 6 -5 6 -14 1 -16
8 -11 44 3 23 6 68 7 99 1 55 0 57 -22 51 -14 -3 -30 1 -42 12 -11 10 -23 15
-27 11 -4 -4 -1 -11 6 -15 11 -7 10 -11 -5 -21 -18 -11 -17 -11 3 -7 20 4 22
2 18 -27 l-5 -31 10 33 c16 51 35 34 34 -29 -8 -274 -10 -307 -22 -321 -10
-13 -10 -17 2 -21 11 -4 13 -1 9 10 -5 13 -3 15 13 8 10 -4 35 -10 54 -12 30
-3 32 -2 13 7 -32 13 -28 27 7 25 53 -3 97 -64 48 -66 l-23 -1 22 -6 c13 -4
19 -12 15 -18 -11 -17 -51 -36 -62 -29 -6 3 -10 1 -10 -4 0 -16 -42 -13 -68 5
-12 8 -22 22 -22 30 0 8 -6 14 -12 14 -9 0 -13 -21 -15 -65 -1 -49 -7 -76 -26
-110 -14 -25 -21 -45 -16 -45 5 0 9 -12 9 -26 0 -14 -4 -23 -9 -19 -6 3 -14
-3 -20 -12 -9 -16 -10 -15 -11 6 l0 24 -22 -20 c-13 -11 -28 -19 -35 -16 -6 2
4 18 25 38 36 33 36 34 23 70 -9 27 -10 40 -2 48 8 8 11 6 11 -8 0 -14 3 -16
12 -7 8 8 8 15 -1 26 -8 10 -9 16 -1 21 6 3 8 11 5 16 -4 5 -1 9 4 9 6 0 11
-6 12 -12 1 -20 18 25 18 47 -1 11 -3 14 -6 8 -6 -16 -39 -17 -48 -3 -4 6 -2
17 5 25 8 10 8 15 -1 21 -7 4 -15 2 -17 -4 -2 -7 -19 -12 -37 -12 -25 0 -34
-5 -38 -21 -3 -12 -10 -18 -17 -14 -8 5 -8 10 0 20 8 9 7 14 -5 18 -8 4 -12
13 -9 22 4 9 1 15 -8 15 -25 0 -29 -13 -11 -33 10 -11 13 -18 8 -15 -6 4 -15
-5 -22 -18 -6 -13 -7 -24 -3 -24 5 0 10 6 13 13 2 6 8 9 12 4 5 -4 3 -13 -3
-19 -17 -17 -15 -28 3 -22 8 4 15 3 15 -2 0 -13 -32 -44 -47 -44 -16 0 -17 16
-1 26 8 5 6 11 -7 20 -10 7 -15 20 -12 29 4 8 2 15 -4 15 -6 0 -7 5 -4 10 4 6
10 8 15 5 5 -3 11 -1 15 5 3 5 0 10 -8 10 -19 0 -31 30 -17 44 5 5 30 11 54
11 41 2 43 1 40 -26 -3 -27 -3 -27 27 -12 17 8 33 22 36 29 4 11 16 13 42 9
20 -2 43 -1 51 4 10 7 5 10 -19 9 -18 -1 -37 5 -42 13 -6 10 -9 10 -9 2 0 -7
-7 -13 -16 -13 -8 0 -12 5 -9 10 3 6 4 10 1 10 -2 0 -12 3 -22 7 -14 5 -16 3
-10 -12 4 -11 4 -16 1 -13 -4 4 -17 3 -30 -2 -37 -14 -37 0 -1 35 24 23 31 37
25 46 -13 21 -11 32 6 25 11 -4 15 1 15 17 0 14 -3 18 -8 10 -5 -7 -8 4 -8 27
0 35 2 40 23 40 13 0 23 5 23 10 0 6 -9 10 -19 10 -22 0 -39 19 -19 21 7 1 18
2 23 4 6 1 21 3 35 4 23 1 23 3 7 12 -14 8 -17 18 -13 37 5 25 4 25 -8 -3 -8
-16 -12 -33 -10 -36 2 -4 -11 -6 -28 -5 -30 1 -54 26 -26 26 8 0 7 4 -4 11
-25 14 -22 29 4 26 18 -1 24 4 26 23 2 19 1 22 -7 10 -5 -8 -7 -18 -4 -24 3
-5 1 -6 -5 -2 -16 10 -15 33 1 39 7 3 28 3 47 1 32 -4 33 -3 14 10 -19 15 -19
15 1 30 16 13 17 15 2 10 -13 -5 -16 -2 -11 10 3 9 1 29 -4 45 -9 25 -8 29 4
24 8 -3 14 -1 14 4 0 5 7 10 15 10 8 0 13 -3 11 -6 -2 -3 2 -11 9 -18 10 -10
16 -9 24 1 6 7 9 15 6 18 -3 3 7 10 22 17 24 9 25 9 11 -2 -14 -11 -11 -13 23
-12 21 0 41 5 43 12 3 7 -1 10 -11 6 -12 -5 -14 -1 -8 18 14 43 51 48 40 6z
m-195 7 c0 -2 -7 -4 -15 -4 -8 0 -15 4 -15 10 0 5 7 7 15 4 8 -4 15 -8 15 -10z
m-350 -24 c0 -5 -9 -19 -20 -30 -11 -11 -16 -20 -11 -20 5 0 7 -10 3 -22 -3
-14 -2 -19 6 -14 7 4 12 5 12 2 0 -11 -35 -46 -45 -46 -6 0 -16 -9 -23 -20 -7
-11 -18 -20 -25 -19 -9 0 -9 2 1 6 19 8 14 30 -9 36 -17 5 -20 12 -17 49 2 35
7 44 25 46 14 2 20 8 16 18 -4 10 0 12 11 8 9 -3 13 -10 10 -15 -11 -18 23 -9
41 11 20 23 25 24 25 10z m241 -42 c5 12 14 22 21 22 9 0 9 3 -2 10 -13 9 -13
10 0 10 8 0 28 -11 43 -25 51 -48 24 -134 -37 -123 -24 5 -25 3 -20 -28 10
-63 12 -134 3 -134 -5 0 -5 -8 -2 -17 6 -17 6 -17 -11 0 -10 10 -15 24 -12 32
3 8 1 15 -4 15 -6 0 -10 7 -10 15 0 8 8 15 18 15 14 0 15 2 2 10 -18 11 -22
52 -6 62 7 5 5 8 -5 8 -10 0 -19 11 -22 26 -4 21 0 28 16 32 19 5 19 6 3 12
-10 3 -17 10 -16 14 1 5 -4 13 -12 18 -10 7 -9 12 7 25 16 13 17 15 3 10 -23
-8 -23 -3 -1 19 16 16 18 15 26 -17 9 -32 10 -33 18 -11z m602 -9 c39 2 45 0
51 -21 10 -38 7 -54 -13 -76 -19 -22 -48 -31 -35 -11 4 8 -1 9 -16 4 -21 -7
-22 -5 -18 39 3 40 1 44 -9 29 -7 -9 -13 -13 -14 -7 0 5 -3 23 -5 39 -3 22 -2
26 5 15 7 -9 24 -13 54 -11z m144 -132 c-2 -23 -3 -1 -3 48 0 50 1 68 3 42 2
-26 2 -67 0 -90z m-808 107 c8 -8 -5 -13 -42 -16 -33 -2 -35 -4 -22 -18 19
-21 19 -31 1 -24 -19 7 -28 45 -14 61 9 12 64 10 77 -3z m474 7 c5 0 5 -6 2
-11 -4 -6 -11 -8 -16 -5 -5 4 -9 -2 -9 -12 -1 -17 -1 -17 -11 -1 -5 10 -16 15
-24 12 -8 -4 -15 -1 -15 6 0 6 5 8 10 5 6 -3 10 -2 10 3 0 8 17 9 53 3z m27
-30 c0 -13 -29 -35 -37 -28 -3 4 2 9 11 13 9 3 13 10 10 15 -3 5 0 9 5 9 6 0
11 -4 11 -9z m-73 -16 c0 -17 -13 -20 -21 -6 -4 5 0 12 6 14 7 3 13 6 14 6 0
1 1 -6 1 -14z m-621 -22 c-10 -10 -19 5 -10 18 6 11 8 11 12 0 2 -7 1 -15 -2
-18z m187 2 c-7 -21 -12 -19 -10 4 0 11 5 18 9 15 4 -3 5 -11 1 -19z m451 -19
c-4 -10 2 -12 22 -8 19 3 25 1 20 -7 -4 -6 -24 -11 -44 -10 -20 0 -31 3 -24 6
6 2 12 11 12 19 0 8 4 14 10 14 5 0 7 -6 4 -14z m88 -8 c-7 -7 -12 -8 -12 -2
0 6 3 14 7 17 3 4 9 5 12 2 2 -3 -1 -11 -7 -17z m88 -14 c0 -8 -4 -14 -10 -14
-5 0 -10 9 -10 21 0 11 5 17 10 14 6 -3 10 -13 10 -21z m-739 -7 c-10 -9 -11
-8 -5 6 3 10 9 15 12 12 3 -3 0 -11 -7 -18z m123 1 c-7 -11 -56 -10 -74 2 -11
7 -2 9 32 8 26 -1 45 -5 42 -10z m-1044 -23 c0 -8 -4 -15 -9 -15 -13 0 -22 16
-14 24 11 11 23 6 23 -9z m850 0 c0 -8 -4 -15 -9 -15 -13 0 -22 16 -14 24 11
11 23 6 23 -9z m655 5 c-19 -8 -19 -9 3 -9 37 -1 14 -21 -24 -21 -21 0 -33 4
-29 10 4 6 11 8 16 5 5 -4 9 -4 9 0 0 3 -10 10 -22 15 -19 7 -15 9 22 9 34 0
40 -3 25 -9z m-477 -7 c-10 -2 -28 -2 -40 0 -13 2 -5 4 17 4 22 1 32 -1 23 -4z
m552 -3 c0 -5 -2 -10 -4 -10 -3 0 -8 5 -11 10 -3 6 -1 10 4 10 6 0 11 -4 11
-10z m-996 -15 c-3 -6 -18 -19 -34 -29 -27 -15 -30 -16 -30 -1 0 9 -4 13 -10
10 -5 -3 -10 -2 -10 4 0 5 14 8 30 6 19 -2 30 1 30 9 0 7 6 13 14 13 8 0 12
-5 10 -12z m209 -4 c-2 -6 6 -11 17 -11 11 0 20 -6 21 -12 0 -7 4 -4 9 7 8 19
9 19 9 -2 1 -12 4 -28 7 -37 4 -12 0 -16 -15 -16 -18 0 -20 -4 -15 -25 5 -22
3 -25 -22 -25 -17 0 -24 -3 -17 -8 7 -4 9 -12 5 -17 -9 -13 -32 -17 -32 -6 0
5 -6 16 -14 24 -14 14 -21 49 -18 95 2 16 8 22 27 22 18 0 23 4 18 16 -4 12
-2 15 8 12 8 -3 13 -11 12 -17z m244 -3 c-9 -6 -8 -8 1 -8 7 0 10 -4 7 -10 -9
-14 -62 -13 -71 2 -4 7 -3 8 4 4 7 -4 12 -3 12 3 0 5 -8 11 -17 13 -10 2 3 4
29 4 25 -1 41 -4 35 -8z m648 -32 c8 4 12 10 9 15 -3 5 -1 9 4 9 6 0 12 -7 16
-15 3 -8 12 -15 21 -15 11 0 15 -11 15 -45 0 -25 -4 -45 -10 -45 -20 0 -25 -2
-39 -13 -11 -9 -13 -9 -8 -1 4 7 -2 14 -15 17 -18 5 -20 11 -15 42 5 30 3 36
-8 31 -11 -4 -15 3 -15 27 0 31 0 31 15 10 9 -13 22 -20 30 -17z m308 27 c-7
-3 -13 -11 -13 -19 0 -8 -6 -11 -15 -8 -25 10 -17 29 13 30 15 1 21 -1 15 -3z
m-1518 -23 c-21 -8 -35 -4 -35 9 0 5 12 6 27 3 24 -5 25 -6 8 -12z m1033 9
c-18 -7 -33 -7 -45 0 -14 8 -9 10 27 10 42 -1 43 -1 18 -10z m552 1 c0 -5 -10
-10 -22 -9 -22 0 -22 1 -3 9 11 5 21 9 23 9 1 1 2 -3 2 -9z m80 -11 c0 -5 -12
-8 -27 -8 -17 1 -21 3 -10 6 9 2 17 9 17 14 0 6 5 7 10 4 6 -3 10 -10 10 -16z
m288 -27 c-6 -28 -23 -15 -25 18 -1 33 -1 34 13 15 8 -11 13 -26 12 -33z
m-194 7 c-3 -5 -10 -7 -15 -3 -5 3 -7 10 -3 15 3 5 10 7 15 3 5 -3 7 -10 3
-15z m-1186 -6 c-7 -9 -8 -14 -2 -10 19 11 28 -23 28 -114 1 -71 -1 -83 -12
-72 -19 18 -25 16 -19 -7 4 -16 2 -18 -13 -10 -13 7 -20 6 -23 -3 -3 -6 -6 3
-6 21 -1 17 -5 32 -9 32 -5 0 -6 -14 -4 -31 3 -22 1 -30 -7 -25 -6 4 -11 28
-12 54 0 26 -3 41 -6 35 -2 -7 -9 -13 -15 -13 -14 0 -8 81 8 107 9 14 10 24 4
28 -20 12 -1 20 50 22 47 2 51 1 38 -14z m1152 -3 c6 -11 8 -25 5 -30 -8 -13
-42 -13 -50 0 -3 6 -1 10 4 10 6 0 10 3 10 8 -6 35 14 43 31 12z m-2035 -10
c10 -11 14 -20 9 -20 -5 0 -15 9 -22 20 -7 11 -11 20 -9 20 2 0 12 -9 22 -20z
m418 13 c-7 -2 -21 -2 -30 0 -10 3 -4 5 12 5 17 0 24 -2 18 -5z m987 -8 c10
-12 10 -15 -4 -15 -9 0 -16 7 -16 15 0 8 2 15 4 15 2 0 9 -7 16 -15z m388 8
c-10 -2 -28 -2 -40 0 -13 2 -5 4 17 4 22 1 32 -1 23 -4z m-1661 -76 c-2 -13
-28 -27 -38 -21 -4 2 -2 24 4 49 l11 46 13 -31 c7 -17 12 -37 10 -43z m95 51
c-7 -7 -12 -8 -12 -2 0 6 3 14 7 17 3 4 9 5 12 2 2 -3 -1 -11 -7 -17z m1728 7
c0 -8 -2 -15 -4 -15 -2 0 -6 7 -10 15 -3 8 -1 15 4 15 6 0 10 -7 10 -15z
m-607 -5 c18 0 19 -2 7 -10 -8 -5 -11 -10 -6 -10 5 0 3 -7 -5 -16 -10 -13 -10
-17 0 -24 9 -5 10 -9 2 -14 -6 -4 -9 -11 -6 -15 8 -14 -44 1 -56 15 -9 11 -7
14 12 14 22 0 22 1 4 13 -10 8 -15 19 -11 25 4 7 0 12 -11 13 -16 0 -16 1 2 9
11 5 26 7 33 4 8 -2 23 -4 35 -4z m730 -92 c-6 -12 -31 -10 -38 3 -4 5 -1 30
6 54 l13 44 12 -47 c7 -26 10 -50 7 -54z m-2160 53 l-6 -25 -9 23 c-9 25 -1
48 13 34 5 -5 6 -19 2 -32z m149 -18 c7 -9 7 -13 -1 -13 -6 0 -11 -4 -11 -9 0
-5 19 -9 43 -9 57 0 67 -3 38 -11 -13 -3 -41 -5 -63 -3 -29 3 -38 8 -34 19 3
8 1 11 -5 8 -6 -4 -7 3 -3 22 10 41 18 51 22 28 2 -11 9 -26 14 -32z m188 10
c0 -19 -30 -16 -37 3 -7 20 18 38 29 21 4 -7 8 -18 8 -24z m427 -30 c-6 -9 -6
-13 1 -13 6 0 9 -7 6 -15 -4 -8 -1 -22 6 -30 9 -11 9 -15 1 -15 -7 0 -9 -4 -6
-10 11 -18 -6 -32 -22 -18 -14 11 -15 10 -9 -9 4 -12 2 -24 -4 -28 -5 -3 -10
-12 -10 -18 1 -7 10 -1 20 12 20 23 20 23 20 2 0 -12 6 -21 13 -22 9 0 9 -2
-1 -6 -6 -2 -10 -8 -8 -12 3 -4 -5 -8 -17 -8 -17 -2 -19 0 -7 7 13 8 12 10 -2
10 -10 0 -18 -3 -18 -7 0 -5 -12 -16 -25 -26 -20 -14 -24 -15 -19 -2 4 10 0
15 -14 15 -22 0 -31 33 -22 90 5 33 7 35 40 33 l35 -2 -25 14 c-14 8 -20 14
-14 15 5 0 19 -6 30 -14 33 -25 62 22 32 52 -9 9 -9 15 0 24 7 7 13 21 13 33
1 13 4 10 8 -10 4 -16 3 -36 -2 -42z m801 60 c0 -5 2 -16 6 -25 5 -10 5 -26 0
-35 -6 -14 -9 -10 -14 17 -6 33 -4 50 6 50 2 0 3 -3 2 -7z m846 -14 c-3 -5
-10 -7 -15 -3 -5 3 -7 10 -3 15 3 5 10 7 15 3 5 -3 7 -10 3 -15z m-2334 -17
c0 -15 5 -33 12 -40 6 -6 9 -14 6 -18 -8 -7 -38 49 -38 71 0 8 5 15 10 15 6 0
10 -13 10 -28z m214 -15 c6 -4 -4 -6 -21 -5 -37 3 -37 2 -22 30 11 21 12 21
22 2 6 -10 15 -22 21 -27z m1741 6 c-5 -15 -7 -32 -6 -38 1 -5 -7 -1 -18 9
-16 15 -18 22 -8 36 6 10 15 16 19 14 4 -3 8 0 8 7 0 7 3 10 6 6 4 -3 3 -19
-1 -34z m55 7 c0 -11 5 -20 12 -20 6 0 3 -9 -7 -20 -18 -20 -17 -20 51 -21 49
-1 62 -3 44 -9 -31 -9 -111 0 -126 14 -6 7 -7 23 -2 44 9 35 28 44 28 12z
m-1055 -10 c3 -5 1 -10 -4 -10 -6 0 -11 5 -11 10 0 6 2 10 4 10 3 0 8 -4 11
-10z m510 -45 c0 -22 -3 -31 -9 -25 -14 14 -18 50 -5 50 5 0 7 6 3 13 -4 7 -3
9 2 4 5 -5 9 -24 9 -42z m-216 26 c9 -6 10 -11 2 -15 -6 -4 -11 -20 -11 -36 0
-16 -5 -32 -12 -36 -7 -4 -8 -3 -4 4 5 8 2 10 -8 6 -14 -5 -14 -8 0 -22 15
-15 15 -16 -2 -23 -26 -9 -27 -6 -20 35 5 28 10 34 24 29 11 -4 8 2 -8 16 -25
22 -25 22 -2 18 26 -6 28 1 5 19 -17 13 -17 13 2 14 11 0 26 -4 34 -9z m-1299
-9 c0 -11 -41 -34 -48 -27 -4 4 2 13 12 21 22 15 36 18 36 6z m240 -2 c0 -5
-5 -10 -11 -10 -5 0 -7 5 -4 10 3 6 8 10 11 10 2 0 4 -4 4 -10z m200 1 c0 -6
-4 -13 -10 -16 -5 -3 -10 1 -10 9 0 9 5 16 10 16 6 0 10 -4 10 -9z m31 -21 c5
0 9 -9 9 -20 0 -16 -5 -19 -23 -15 -15 4 -31 -1 -47 -15 -13 -11 -26 -17 -29
-12 -3 5 -13 12 -21 16 -9 3 -5 4 7 2 13 -2 34 5 48 16 14 10 29 17 33 14 5
-3 8 7 6 22 -2 15 -1 19 2 10 3 -10 10 -18 15 -18z m989 26 c0 -2 -7 -7 -16
-10 -8 -3 -12 -2 -9 4 6 10 25 14 25 6z m370 -6 c0 -13 52 -60 67 -60 6 0 18
7 27 15 19 19 25 19 48 -2 25 -23 22 -33 -9 -32 -24 0 -25 2 -9 8 19 7 19 8 1
14 -10 5 -28 1 -41 -8 -29 -19 -44 -19 -44 0 0 9 -6 12 -15 9 -8 -4 -15 -1
-15 6 0 10 -3 10 -15 0 -8 -6 -19 -9 -25 -5 -15 9 -12 35 5 35 8 0 15 4 15 10
0 5 -7 7 -15 4 -8 -4 -15 -1 -15 5 0 6 9 11 20 11 11 0 20 -4 20 -10z m54 -5
c43 -18 49 -41 9 -30 -31 7 -53 23 -53 36 0 12 1 12 44 -6z m-874 -3 c0 -5 -7
-9 -15 -9 -8 0 -15 4 -15 9 0 4 7 8 15 8 8 0 15 -4 15 -8z m-600 -10 c0 -4 -9
-13 -20 -19 -20 -13 -37 -2 -25 17 7 12 45 14 45 2z m974 2 c22 -9 10 -24 -20
-24 -15 0 -24 6 -24 15 0 16 17 19 44 9z m176 -46 c0 -5 -7 -8 -15 -8 -9 0
-12 -6 -8 -15 3 -10 0 -15 -8 -13 -8 2 -15 -7 -17 -19 -2 -13 2 -23 8 -23 6 0
9 4 5 9 -3 5 -1 12 5 16 5 3 10 -1 10 -9 0 -8 5 -18 10 -21 7 -4 9 2 5 17 -6
25 25 92 40 87 6 -2 9 -7 8 -11 -2 -5 0 -7 5 -7 27 5 32 -4 32 -55 0 -40 -4
-55 -16 -60 -9 -3 -14 -12 -11 -19 3 -7 -3 -13 -13 -13 -10 0 -16 6 -13 13 3
7 -2 13 -11 13 -9 0 -16 5 -16 11 0 6 -6 9 -12 6 -7 -2 -12 -10 -10 -17 2 -8
-3 -10 -13 -6 -9 3 -21 6 -26 6 -6 0 -7 5 -3 11 3 6 0 15 -7 20 -11 7 -11 9
-1 9 7 0 10 4 7 10 -3 5 -1 18 4 29 8 14 8 21 -2 24 -7 3 -5 6 6 6 9 1 18 6
18 11 1 6 3 15 4 20 1 6 3 13 4 17 1 8 30 -29 31 -39z m-1424 20 c3 -4 10 -8
15 -8 6 0 7 5 4 10 -3 6 0 10 8 10 8 0 17 -7 21 -15 5 -14 -4 -19 -29 -16 -6
0 -9 -16 -7 -39 3 -29 8 -40 21 -39 10 0 11 2 4 6 -7 2 -13 16 -13 29 0 15 4
23 11 19 6 -4 8 -13 5 -21 -3 -7 -1 -16 4 -19 5 -3 8 -14 7 -25 -1 -22 -36
-29 -38 -7 -1 6 -5 1 -9 -13 -6 -17 -8 -19 -9 -7 -1 20 -21 13 -58 -22 -20
-19 -22 -19 -40 -3 -12 11 -19 31 -20 59 0 33 4 43 23 54 13 6 21 16 18 21
-10 17 18 38 48 36 16 -1 32 -6 34 -10z m77 -3 c-3 -9 -8 -14 -10 -11 -3 3 -2
9 2 15 9 16 15 13 8 -4z m137 4 c0 -6 -10 -13 -22 -17 -20 -5 -20 -6 -3 -12
15 -5 16 -8 3 -12 -8 -4 -20 -3 -27 2 -10 5 -7 13 10 29 25 23 39 27 39 10z
m656 -1 c4 -7 3 -8 -4 -4 -7 4 -12 2 -12 -5 0 -7 -3 -10 -6 -6 -6 5 3 27 11
27 2 0 7 -5 11 -12z m1296 -15 c20 -12 44 -35 53 -52 14 -29 14 -31 -2 -31
-10 1 -29 7 -43 15 -30 17 -44 19 -34 4 3 -6 -5 -3 -19 6 -15 9 -32 13 -38 9
-8 -5 -10 -2 -6 8 3 9 1 20 -4 25 -16 16 0 38 29 38 15 0 44 -10 64 -22z
m-907 -3 c3 -5 1 -10 -6 -10 -6 0 -9 -8 -6 -20 4 -17 0 -20 -31 -20 -36 1 -37
1 -13 14 18 10 20 15 10 19 -10 4 -8 6 6 7 17 2 16 3 -5 10 -24 8 -24 8 7 9
17 1 35 -3 38 -9z m692 -5 c6 -2 13 1 15 6 4 13 58 1 58 -12 0 -5 -8 -9 -17
-9 -10 -1 -42 -2 -71 -4 -33 -2 -49 0 -40 5 11 7 10 11 -2 19 -11 8 -7 9 15 4
17 -3 35 -7 42 -9z m-1081 -22 c-10 -10 -19 5 -10 18 6 11 8 11 12 0 2 -7 1
-15 -2 -18z m-986 13 c0 -3 -4 -8 -10 -11 -5 -3 -10 -1 -10 4 0 6 5 11 10 11
6 0 10 -2 10 -4z m215 -6 c3 -6 -1 -7 -9 -4 -18 7 -21 14 -7 14 6 0 13 -4 16
-10z m1608 -2 c-6 -11 -31 -10 -37 1 -3 5 5 8 18 7 13 0 22 -4 19 -8z m-393
-18 c0 -5 -5 -10 -11 -10 -5 0 -7 5 -4 10 3 6 8 10 11 10 2 0 4 -4 4 -10z
m557 4 c-3 -3 -12 -4 -19 -1 -8 3 -5 6 6 6 11 1 17 -2 13 -5z m-1547 -14 c0
-5 -11 -10 -24 -10 -14 0 -28 5 -31 10 -4 6 7 10 24 10 17 0 31 -4 31 -10z
m1413 3 c-13 -2 -35 -2 -50 0 -16 2 -5 4 22 4 28 0 40 -2 28 -4z m251 -8 c-4
-8 -10 -12 -15 -9 -11 6 -2 24 11 24 5 0 7 -7 4 -15z m-1189 -15 c-3 -5 -10
-10 -16 -10 -5 0 -9 5 -9 10 0 6 7 10 16 10 8 0 12 -4 9 -10z m722 -57 c-2
-16 -4 -5 -4 22 0 28 2 40 4 28 2 -13 2 -35 0 -50z m566 43 c35 -24 29 -31 -9
-11 -16 8 -35 15 -41 15 -7 0 -13 4 -13 10 0 14 30 7 63 -14z m-1423 -22 c0
-8 -5 -12 -10 -9 -6 4 -8 11 -5 16 9 14 15 11 15 -7z m1337 -4 c-1 -14 -8 -20
-24 -20 -28 0 -26 22 2 32 11 3 21 6 22 7 1 1 1 -8 0 -19z m178 -34 c17 -14
14 -14 -17 1 -21 9 -38 21 -38 25 0 10 25 -2 55 -26z m25 30 c0 -3 -4 -8 -10
-11 -5 -3 -10 -1 -10 4 0 6 5 11 10 11 6 0 10 -2 10 -4z m-150 -36 c0 -10 -5
-22 -10 -25 -13 -8 -24 20 -16 41 8 20 26 9 26 -16z m-2023 -17 c-3 -10 -5 -4
-5 12 0 17 2 24 5 18 2 -7 2 -21 0 -30z m573 7 c0 -20 -5 -30 -15 -30 -18 0
-19 14 -3 40 17 26 18 25 18 -10z m-729 -3 c-13 -13 -26 -3 -16 12 3 6 11 8
17 5 6 -4 6 -10 -1 -17z m779 8 c9 5 11 4 6 -3 -4 -7 -2 -12 3 -12 6 0 11 -5
11 -11 0 -8 -5 -8 -15 1 -10 9 -15 9 -15 1 0 -24 -15 -10 -17 16 -1 16 2 21 7
13 4 -7 13 -9 20 -5z m745 6 c-3 -5 2 -16 11 -25 19 -20 12 -33 -18 -31 -22 2
-40 25 -19 25 6 0 10 3 10 8 -3 18 2 32 12 32 5 0 8 -4 4 -9z m-35 -19 c0 -7
-3 -11 -7 -9 -5 3 -8 -14 -8 -38 0 -41 -1 -44 -26 -42 -15 1 -25 7 -24 12 1 6
6 25 10 43 4 17 12 32 17 32 5 0 7 4 4 8 -2 4 4 8 15 8 10 0 19 -6 19 -14z
m617 -19 c-3 -10 -5 -4 -5 12 0 17 2 24 5 18 2 -7 2 -21 0 -30z m-1247 17 c0
-5 -5 -10 -11 -10 -5 0 -7 5 -4 10 3 6 8 10 11 10 2 0 4 -4 4 -10z m787 -132
c-2 -29 -3 -8 -3 47 0 55 1 79 3 53 2 -26 2 -71 0 -100z m-1507 107 c0 -7 -8
-19 -17 -24 -17 -10 -17 -10 1 -11 20 0 20 0 0 -16 -10 -8 -13 -12 -5 -8 10 5
13 3 8 -8 -3 -9 0 -21 6 -27 8 -8 8 -14 -1 -23 -9 -9 -12 -9 -12 0 0 18 -22
14 -50 -8 -33 -26 -56 -25 -64 3 -5 18 4 31 46 68 29 26 58 51 63 57 14 16 25
14 25 -3z m55 5 c-3 -5 -1 -10 4 -10 6 0 10 -3 10 -7 -4 -28 2 -35 27 -29 17
5 23 3 19 -4 -3 -5 -13 -10 -22 -10 -9 0 -13 -6 -10 -14 4 -10 1 -13 -7 -10
-15 6 -29 -22 -19 -38 3 -6 1 -8 -5 -4 -6 3 -10 20 -10 36 1 16 5 27 10 24 4
-3 8 0 8 5 0 6 -4 11 -10 11 -5 0 -7 6 -4 14 3 8 0 17 -5 21 -13 7 -5 25 10
25 6 0 7 -4 4 -10z m145 -25 c-10 -12 -9 -15 8 -15 15 0 19 5 15 20 -3 11 0
20 6 20 6 0 10 -6 9 -12 -2 -7 8 -13 22 -15 14 -1 17 1 8 3 -21 6 -24 24 -4
24 17 0 38 -24 29 -33 -3 -4 -18 -7 -32 -7 -21 0 -23 -2 -11 -11 12 -8 9 -9
-12 -5 -19 4 -28 2 -28 -6 0 -7 -8 -3 -18 9 -12 16 -21 20 -32 13 -20 -12 -34
-1 -19 16 8 9 16 11 29 4 14 -8 19 -5 25 13 4 14 8 17 12 9 3 -7 -1 -19 -7
-27z m695 26 c7 -12 -12 -24 -25 -16 -11 7 -4 25 10 25 5 0 11 -4 15 -9z m904
-46 c34 -22 40 -35 16 -35 -8 0 -15 7 -15 16 0 8 -4 13 -9 9 -5 -3 -13 -1 -16
5 -5 8 -11 7 -21 -1 -11 -9 -18 -8 -31 2 -9 8 -14 9 -10 3 4 -7 0 -14 -8 -18
-8 -3 -17 -1 -20 4 -4 6 -1 10 5 10 6 0 8 5 4 12 -6 9 -9 9 -12 0 -3 -10 -7
-10 -18 -1 -18 15 -18 33 1 26 8 -4 17 -2 20 3 4 6 18 10 33 9 l27 -1 -25 -8
-25 -8 28 -1 c19 -1 27 4 28 17 0 14 2 14 9 -3 4 -11 22 -29 39 -40z m-9 39
c0 -8 -4 -12 -10 -9 -5 3 -10 10 -10 16 0 5 5 9 10 9 6 0 10 -7 10 -16z
m-1769 -52 c1 -28 0 -55 -4 -59 -4 -3 -7 22 -7 57 0 75 8 77 11 2z m529 18 c7
0 9 -8 5 -20 -4 -12 -2 -20 5 -20 6 0 9 4 6 9 -3 5 1 14 9 21 15 12 20 4 16
-22 0 -5 4 -8 9 -8 6 0 10 -4 10 -10 0 -5 -14 -10 -31 -10 -24 0 -30 -4 -25
-15 8 -23 -4 -45 -25 -45 -12 0 -19 -7 -19 -20 0 -11 -5 -20 -11 -20 -6 0 -8
9 -4 20 5 14 2 20 -9 20 -17 0 -17 0 -19 72 -2 43 0 48 20 48 17 0 20 5 16 23
l-5 22 20 -22 c11 -13 25 -23 32 -23z m366 4 c-5 -14 -9 -15 -19 -5 -9 9 -9
14 3 21 18 11 24 6 16 -16z m159 7 c-3 -6 -11 -11 -17 -11 -6 0 -6 6 2 15 14
17 26 13 15 -4z m387 7 c-13 -13 -16 -29 -4 -27 26 4 32 -4 32 -49 0 -59 -29
-103 -50 -77 -7 8 -18 15 -26 15 -7 0 -14 14 -16 32 -3 30 -4 31 -21 14 -16
-16 -18 -16 -23 -1 -9 21 17 70 27 53 4 -7 5 -16 3 -20 -3 -4 -1 -8 5 -8 5 0
11 10 13 23 2 12 6 21 11 20 4 -2 16 6 27 17 11 11 23 20 27 20 4 0 2 -5 -5
-12z m383 1 c4 -6 5 -13 2 -16 -8 -7 -47 7 -47 18 0 13 37 11 45 -2z m97 -22
c-7 -8 -9 -17 -5 -20 3 -4 1 -7 -5 -7 -7 0 -12 -5 -12 -11 0 -5 5 -7 12 -3 7
5 9 2 5 -8 -3 -9 -1 -20 5 -26 6 -6 7 -16 3 -22 -5 -8 -12 -2 -21 19 -7 17
-23 35 -36 41 l-23 9 23 0 c16 1 26 10 34 32 7 21 14 27 21 20 7 -7 7 -14 -1
-24z m67 -69 c-8 -26 -15 -34 -20 -26 -5 7 -4 17 1 22 4 4 6 15 3 24 -4 10 -2
13 5 8 7 -4 12 -2 12 3 0 6 -4 11 -10 11 -5 0 -7 6 -4 14 3 8 0 17 -5 21 -6 3
-8 12 -4 18 4 7 12 -2 21 -23 11 -28 12 -41 1 -72z m-1062 55 c-16 -16 -17
-16 -17 3 0 11 3 24 7 28 4 3 11 2 17 -4 7 -7 5 -16 -7 -27z m443 27 c0 -5 -4
-10 -10 -10 -5 0 -10 5 -10 10 0 6 5 10 10 10 6 0 10 -4 10 -10z m579 -52 c0
-35 -4 -55 -7 -46 -7 18 -4 108 4 108 2 0 4 -28 3 -62z m-79 42 c8 -5 12 -12
9 -15 -8 -8 -39 5 -39 16 0 11 11 11 30 -1z m-1221 -47 c-7 -8 -4 -13 8 -17
22 -7 58 -80 48 -97 -6 -8 -4 -10 5 -4 8 5 21 -3 36 -21 24 -30 31 -50 14 -39
-5 3 -10 1 -10 -6 0 -7 -6 -4 -14 6 -8 11 -12 26 -9 35 4 13 4 13 -6 0 -8 -12
-11 -12 -11 -1 0 11 -3 11 -15 1 -10 -8 -15 -9 -15 -2 0 7 -8 9 -17 5 -10 -3
-6 4 10 16 15 13 25 27 21 32 -3 5 -10 7 -15 4 -5 -4 -9 4 -9 16 0 17 -3 19
-14 10 -11 -9 -18 -8 -30 4 -20 21 -21 32 -1 15 14 -11 14 -10 5 14 -5 15 -7
38 -4 52 6 23 7 23 19 7 9 -12 10 -22 4 -30z m461 32 c37 -19 39 -29 5 -22
-24 4 -25 3 -10 -13 15 -17 15 -19 -2 -29 -10 -6 -12 -11 -5 -11 16 0 16 -20
-1 -20 -23 0 -47 34 -40 58 3 12 9 22 14 22 5 0 6 7 3 15 -8 19 0 19 36 0z
m-840 1 c0 -3 -4 -8 -10 -11 -5 -3 -10 -1 -10 4 0 6 5 11 10 11 6 0 10 -2 10
-4z m-112 -18 c-2 -6 -10 -14 -16 -16 -7 -2 -10 2 -6 12 7 18 28 22 22 4z
m672 -18 c5 0 6 8 3 17 -6 15 -5 16 9 3 9 -8 14 -18 12 -22 -2 -4 1 -10 7 -13
5 -4 8 -12 6 -19 -2 -6 -1 -19 2 -29 6 -17 9 -17 36 4 30 22 30 22 -3 -12 -18
-20 -30 -38 -27 -41 3 -3 -6 -3 -21 0 -19 3 -22 7 -12 13 10 7 9 9 -5 9 -10 0
-15 5 -12 10 3 6 1 10 -4 10 -6 0 -11 9 -11 19 0 11 -5 23 -10 26 -12 8 -9 37
5 47 6 4 11 1 13 -7 2 -8 7 -15 12 -15z m845 13 c14 -11 15 -14 3 -10 -21 7
-30 -24 -12 -41 8 -7 10 -20 6 -30 -6 -15 -7 -14 -10 5 -2 12 -15 26 -33 33
-36 15 -37 28 -4 36 14 3 22 10 19 15 -8 14 9 10 31 -8z m-388 -35 c-5 -34 -4
-38 4 -19 5 13 12 22 14 19 6 -6 -51 -144 -68 -165 -7 -8 -22 -25 -34 -38 -13
-13 -23 -27 -23 -30 0 -14 -29 -35 -35 -25 -3 5 8 25 26 45 44 48 62 75 50 75
-5 0 -13 -9 -16 -21 -4 -12 -13 -18 -20 -15 -15 5 -39 -17 -28 -27 7 -8 -41
-56 -81 -82 -30 -20 -49 -12 -22 8 16 12 16 14 2 26 -14 12 -16 12 -11 -1 7
-18 -44 -36 -98 -34 -20 1 -37 -3 -37 -8 0 -4 27 -6 60 -4 33 2 60 1 60 -3 0
-9 -38 -19 -72 -19 -16 0 -28 -4 -28 -9 0 -4 16 -7 35 -5 27 2 35 -2 36 -14 0
-14 2 -14 6 -2 8 19 35 40 45 34 13 -8 9 -24 -7 -24 -7 0 -18 -7 -23 -16 -7
-12 -14 -14 -28 -6 -21 11 -53 10 -72 -2 -8 -5 -20 -2 -30 7 -9 8 -23 12 -31
9 -8 -3 -12 1 -9 9 6 18 41 18 49 0 4 -12 7 -12 12 2 4 12 -5 20 -38 32 -40
16 -43 19 -40 52 1 24 -1 31 -8 24 -8 -8 -16 -6 -29 6 -10 9 -18 11 -18 5 0
-6 9 -16 20 -22 11 -6 20 -17 20 -25 0 -21 -9 -19 -30 8 -10 12 -21 19 -25 15
-7 -6 38 -58 50 -59 20 0 32 -14 32 -38 0 -33 -19 -36 -37 -7 -12 19 -12 20 3
7 36 -29 15 7 -24 43 -28 26 -44 34 -49 26 -5 -8 -9 -7 -13 4 -4 10 -1 16 8
16 19 0 30 21 15 30 -6 4 -11 10 -11 13 0 4 -11 19 -24 33 -14 15 -25 21 -25
15 0 -9 -5 -8 -15 3 -19 19 -20 32 -1 17 11 -9 15 -9 18 1 3 8 17 -1 37 -22
18 -19 30 -30 27 -24 -10 21 26 25 48 6 36 -32 74 -52 98 -52 45 0 69 -12 63
-29 -5 -13 -3 -13 12 2 10 10 40 28 67 42 l48 23 -5 -36 c-6 -31 -5 -34 8 -21
11 11 13 22 6 47 -6 18 -6 30 -1 27 14 -9 41 7 36 21 -3 9 0 11 11 7 12 -5 15
-2 10 10 -4 11 -1 17 9 17 8 0 12 5 9 10 -3 6 -1 10 5 10 6 0 8 5 5 10 -3 6
-2 10 3 10 5 0 17 16 28 35 10 19 22 35 25 35 4 0 6 8 5 18 0 9 5 16 12 15 6
-2 12 2 12 7 0 6 5 10 11 10 8 0 10 -14 6 -42z m453 32 c13 -8 13 -10 -2 -10
-9 0 -20 5 -23 10 -8 13 5 13 25 0z m-173 -35 c-23 -22 -33 -18 -12 5 10 11
20 18 23 16 2 -3 -3 -12 -11 -21z m170 9 c-3 -3 -12 -4 -19 -1 -8 3 -5 6 6 6
11 1 17 -2 13 -5z m-1499 -11 c-10 -2 -26 -2 -35 0 -10 3 -2 5 17 5 19 0 27
-2 18 -5z m-228 -17 c0 -3 -4 -8 -10 -11 -5 -3 -10 -1 -10 4 0 6 5 11 10 11 6
0 10 -2 10 -4z m1061 -13 c11 -13 11 -17 1 -21 -10 -3 -10 -7 0 -20 12 -15 11
-16 -4 -4 -9 8 -21 11 -26 9 -4 -3 -14 -1 -22 4 -13 8 -13 11 2 23 10 7 15 16
11 19 -3 4 1 7 9 7 9 0 22 -7 29 -17z m298 -35 c1 -3 -5 -8 -11 -11 -7 -2 -3
-2 10 0 36 6 22 -18 -22 -38 -12 -6 -18 39 -6 46 6 3 10 16 11 28 0 21 1 21 9
2 5 -11 9 -23 9 -27z m-796 12 c4 -16 0 -20 -19 -20 -26 0 -30 10 -12 28 17
17 25 15 31 -8z m1382 10 c3 -5 1 -10 -4 -10 -6 0 -11 5 -11 10 0 6 2 10 4 10
3 0 8 -4 11 -10z m-1315 -10 c0 -5 5 -9 11 -7 6 1 13 -3 16 -10 3 -7 -3 -10
-16 -6 -20 5 -38 33 -21 33 6 0 10 -4 10 -10z m890 -5 c0 -8 -4 -15 -8 -15 -5
0 -9 7 -9 15 0 8 4 15 9 15 4 0 8 -7 8 -15z m146 -25 c0 -11 -6 -20 -14 -20
-7 0 -11 -4 -7 -9 3 -5 1 -12 -5 -16 -13 -8 -13 5 3 38 14 32 23 34 23 7z
m-1651 -10 c-3 -5 -15 -10 -26 -10 -10 0 -19 5 -19 10 0 6 12 10 26 10 14 0
23 -4 19 -10z m1518 -23 c-3 -5 -9 -3 -14 4 -4 7 -5 17 -2 22 3 5 9 3 14 -4 4
-7 5 -17 2 -22z m415 -13 l-12 -25 -12 23 c-13 25 -2 40 22 31 10 -4 10 -10 2
-29z m-347 3 c11 3 19 1 19 -5 0 -12 -48 -13 -56 -1 -3 5 -10 6 -16 3 -7 -4
-8 -2 -4 5 5 7 13 8 23 2 9 -4 24 -6 34 -4z m-1046 -7 c-3 -5 -2 -10 4 -10 5
0 8 -7 7 -16 -3 -18 -26 -35 -38 -28 -4 3 -7 -11 -6 -31 1 -19 5 -35 10 -35 4
0 8 5 8 10 0 6 5 10 10 10 6 0 10 -7 10 -16 0 -8 5 -12 10 -9 6 3 10 2 10 -3
0 -5 -11 -14 -25 -20 -21 -10 -23 -9 -18 5 5 14 2 14 -25 -2 -17 -10 -29 -22
-26 -26 2 -4 -5 -5 -16 -2 -22 6 -26 18 -10 28 16 10 12 23 -10 30 -16 5 -20
15 -20 46 0 35 2 39 26 39 21 0 25 4 20 18 -6 16 -5 16 8 0 18 -24 38 -23 54
2 7 11 15 20 18 20 3 0 2 -4 -1 -10z m869 -14 c-3 -9 1 -13 13 -13 16 2 18 -7
17 -78 0 -57 -4 -79 -12 -77 -7 1 -12 -2 -12 -8 0 -5 -5 -10 -11 -10 -5 0 -8
4 -5 9 4 5 -3 7 -14 4 -13 -3 -20 0 -20 9 0 7 -9 14 -21 15 -14 1 -19 -2 -15
-13 3 -8 9 -21 12 -29 4 -11 0 -15 -15 -15 -12 0 -21 -4 -21 -9 0 -5 9 -7 20
-4 12 3 20 0 20 -6 0 -7 6 -9 13 -6 6 4 3 -1 -7 -9 -23 -19 -36 -20 -36 -4 0
6 -3 8 -6 5 -4 -4 -1 -15 6 -24 8 -10 3 -8 -10 4 l-24 23 23 31 c21 28 22 32
7 48 -9 10 -14 25 -10 34 4 11 0 19 -10 23 -22 8 -21 36 2 32 9 -2 16 -11 16
-21 -1 -9 2 -17 7 -17 5 0 9 6 9 13 0 8 4 7 10 -3 6 -9 10 -10 10 -3 0 6 3 18
6 27 4 11 0 16 -14 16 -12 0 -24 5 -27 10 -3 6 5 10 18 10 14 0 27 7 31 15 3
8 12 12 21 9 11 -5 14 -2 9 10 -4 11 -1 16 10 16 9 0 13 -6 10 -14z m-64 -17
c0 -5 -7 -9 -15 -9 -9 0 -12 6 -9 15 6 15 24 11 24 -6z m-1357 4 c-7 -2 -19
-2 -25 0 -7 3 -2 5 12 5 14 0 19 -2 13 -5z m104 -25 c-3 -8 -6 -5 -6 6 -1 11
2 17 5 13 3 -3 4 -12 1 -19z m63 -18 c11 0 20 4 20 8 0 10 36 9 46 0 3 -4 12
-4 20 -1 10 4 12 0 8 -11 -3 -9 -10 -16 -16 -16 -5 0 -6 -9 -3 -20 7 -23 -4
-26 -24 -7 -12 10 -13 8 -7 -8 6 -17 5 -18 -6 -5 -7 8 -19 21 -27 28 -13 10
-11 12 8 12 12 0 19 -4 16 -10 -3 -6 1 -7 9 -4 9 3 16 10 16 16 0 5 -4 6 -10
3 -5 -3 -10 -2 -10 2 0 5 -16 7 -36 5 -27 -3 -33 -7 -23 -14 11 -8 11 -9 -1
-5 -8 2 -14 10 -12 16 1 6 -2 11 -7 11 -5 0 -7 10 -3 22 l5 22 8 -22 c5 -13
17 -22 29 -22z m10 26 c0 -11 -19 -15 -25 -6 -3 5 1 10 9 10 9 0 16 -2 16 -4z
m430 -17 c0 -5 -7 -9 -15 -9 -15 0 -20 12 -9 23 8 8 24 -1 24 -14z m95 7 c17
-17 7 -30 -12 -15 -13 12 -18 29 -7 29 3 0 12 -6 19 -14z m1125 -7 c0 -5 -4
-9 -10 -9 -5 0 -10 7 -10 16 0 8 5 12 10 9 6 -3 10 -10 10 -16z m-1756 2 c7
-10 -22 -37 -30 -28 -9 8 3 37 15 37 5 0 12 -4 15 -9z m229 -4 c3 -7 -4 -19
-14 -25 -12 -8 -19 -8 -19 -2 0 5 5 10 11 10 6 0 9 7 5 15 -3 8 -1 15 3 15 5
0 11 -6 14 -13z m1467 3 c0 -5 -7 -10 -17 -10 -9 0 -14 -3 -10 -6 9 -9 48 6
42 17 -4 5 -1 9 4 9 6 0 11 -7 11 -15 0 -9 7 -18 15 -21 36 -14 16 -21 -75
-26 -8 -1 -24 3 -35 7 -15 6 -14 3 5 -11 14 -10 30 -17 35 -16 6 2 7 0 2 -4
-10 -11 -47 -13 -41 -2 3 4 1 8 -5 8 -5 0 -12 -6 -14 -12 -3 -7 -6 -4 -6 7 -2
22 -40 78 -41 58 0 -6 5 -15 10 -18 6 -3 10 -11 10 -18 0 -6 -10 -1 -22 11
-17 16 -19 25 -11 33 9 9 18 8 38 -5 16 -11 24 -12 23 -4 -2 6 9 13 26 14 15
2 31 5 34 8 9 9 22 7 22 -4z m-1770 -10 c0 -5 -4 -10 -10 -10 -5 0 -10 5 -10
10 0 6 5 10 10 10 6 0 10 -4 10 -10z m1883 -4 c7 -19 0 -25 -24 -19 -10 3 -19
12 -19 19 0 18 36 18 43 0z m64 8 c-3 -3 -12 -4 -19 -1 -8 3 -5 6 6 6 11 1 17
-2 13 -5z m-1851 -39 c-16 -14 -32 -23 -34 -20 -8 8 31 44 48 44 9 1 4 -9 -14
-24z m248 19 c21 -8 21 -24 0 -24 -9 0 -12 5 -8 12 5 8 2 9 -10 5 -10 -4 -15
-3 -11 3 7 12 8 12 29 4z m253 0 c-3 -3 -12 -4 -19 -1 -8 3 -5 6 6 6 11 1 17
-2 13 -5z m133 -4 c0 -5 -7 -10 -16 -10 -8 0 -12 5 -9 10 3 6 10 10 16 10 5 0
9 -4 9 -10z m1207 -12 c-3 -8 -6 -5 -6 6 -1 11 2 17 5 13 3 -3 4 -12 1 -19z
m-700 -34 c-3 -19 -1 -34 2 -34 4 0 7 -16 7 -35 0 -19 -4 -35 -8 -35 -4 0 -8
-11 -8 -25 0 -14 -5 -25 -11 -25 -6 0 -9 9 -6 20 3 11 2 20 -2 20 -4 0 -16 7
-27 16 -10 8 -13 12 -5 8 11 -6 13 -1 8 24 -6 27 -4 32 13 32 17 0 20 7 20 41
0 25 4 38 10 34 6 -4 9 -22 7 -41z m-1241 16 c0 -11 -4 -20 -8 -20 -4 0 -8 9
-8 20 0 11 4 20 8 20 4 0 8 -9 8 -20z m314 1 c0 -5 -9 -11 -20 -14 -17 -4 -18
-2 -9 14 9 18 29 18 29 0z m378 -16 c-4 -16 2 -25 24 -34 27 -12 28 -14 11
-28 -13 -10 -15 -16 -5 -19 16 -7 5 -25 -12 -18 -9 4 -16 -8 -21 -38 l-8 -43
-6 45 c-4 25 -10 51 -14 58 -5 7 -3 12 5 13 7 0 4 4 -7 9 l-20 9 20 0 c17 1
18 3 5 11 -13 8 -13 11 -1 19 8 5 12 18 9 29 -4 15 -2 19 9 15 9 -4 13 -15 11
-28z m902 15 c0 -5 -7 -7 -15 -4 -8 4 -15 8 -15 10 0 2 7 4 15 4 8 0 15 -4 15
-10z m53 -10 c6 -22 0 -25 -22 -11 -7 5 -10 14 -7 20 11 17 23 13 29 -9z m232
3 c-8 -8 -19 -11 -25 -8 -17 11 -11 20 15 21 21 2 22 0 10 -13z m-745 -6 c0
-8 -12 -20 -26 -27 -18 -10 -24 -20 -20 -33 6 -25 -19 -54 -28 -32 -3 8 -1 15
5 15 6 0 8 9 4 21 -7 21 21 53 37 43 5 -3 8 2 8 10 0 9 5 16 10 16 6 0 10 -6
10 -13z m354 -13 c3 -8 2 -12 -4 -9 -6 3 -10 10 -10 16 0 14 7 11 14 -7z m461
-3 c3 -5 1 -12 -5 -16 -5 -3 -10 1 -10 9 0 18 6 21 15 7z m-207 -18 c-10 -2
-26 -2 -35 0 -10 3 -2 5 17 5 19 0 27 -2 18 -5z m-1174 -34 c-3 -5 -13 -8 -22
-7 -11 2 -18 -5 -20 -19 -2 -13 1 -23 6 -23 6 0 13 -11 16 -24 3 -13 9 -31 12
-40 3 -9 1 -16 -5 -16 -6 0 -11 10 -11 23 0 12 -7 31 -15 41 -19 25 -19 45 1
67 16 17 49 15 38 -2z m546 11 c0 -5 -5 -10 -11 -10 -5 0 -7 5 -4 10 3 6 8 10
11 10 2 0 4 -4 4 -10z m-1110 -24 c0 -8 -6 -18 -13 -25 -11 -8 -13 -5 -9 19 4
29 22 33 22 6z m31 7 c13 -16 12 -17 -3 -4 -17 13 -22 21 -14 21 2 0 10 -8 17
-17z m559 -24 c0 -6 -4 -7 -10 -4 -5 3 -10 11 -10 16 0 6 5 7 10 4 6 -3 10
-11 10 -16z m1360 1 c9 -17 8 -20 -9 -20 -17 0 -20 10 -12 38 3 7 12 0 21 -18z
m28 -5 c-3 -3 -9 2 -12 12 -6 14 -5 15 5 6 7 -7 10 -15 7 -18z m-1418 0 c0 -8
5 -15 11 -15 5 0 8 -4 4 -10 -3 -5 -14 -2 -25 8 -24 20 -26 32 -5 32 8 0 15
-7 15 -15z m60 -34 c0 -4 -7 -8 -15 -8 -16 0 -20 9 -9 20 8 8 24 -1 24 -12z
m290 9 c8 -5 12 -12 8 -15 -9 -9 -48 4 -48 16 0 12 21 11 40 -1z m106 0 c8 0
14 -4 14 -10 0 -5 -13 -10 -30 -10 -21 0 -30 5 -30 16 0 11 5 14 16 10 9 -3
22 -6 30 -6z m-1011 -20 c3 -5 2 -10 -4 -10 -6 0 -8 -7 -5 -15 4 -8 2 -15 -4
-15 -11 0 -23 36 -14 44 8 9 20 7 27 -4z m520 -61 c0 -41 -4 -54 -15 -55 -8
-1 -21 -2 -28 -3 -7 0 -10 -6 -6 -13 4 -6 3 -8 -4 -4 -6 3 -13 2 -17 -4 -17
-28 -24 18 -17 117 2 24 32 34 67 22 17 -5 20 -15 20 -60z m780 60 c11 -17 -1
-21 -15 -4 -8 9 -8 15 -2 15 6 0 14 -5 17 -11z m-559 -15 c-20 -20 -20 -19 7
-36 38 -25 67 -31 67 -14 0 8 4 17 9 20 4 3 6 -6 3 -21 -3 -18 -1 -24 7 -19 6
4 11 3 11 -1 0 -5 9 -9 19 -10 14 -1 20 6 23 28 3 16 1 29 -4 29 -4 0 -8 -8
-9 -17 -1 -12 -4 -9 -8 7 -5 17 -3 28 6 33 24 15 35 -3 28 -45 -5 -29 -4 -39
4 -34 6 4 11 17 11 28 0 12 3 18 7 14 4 -4 6 -25 4 -46 -1 -24 2 -40 8 -40 6
0 11 11 11 25 0 14 5 25 11 25 6 0 8 9 4 20 -4 11 -2 20 4 20 6 0 11 -11 11
-25 0 -14 5 -25 11 -25 7 0 9 10 7 25 -3 13 -1 22 3 19 5 -3 9 -13 9 -22 0
-11 8 -18 20 -18 11 0 20 4 20 9 0 4 4 6 9 2 5 -3 16 2 24 10 9 8 22 15 31 15
8 0 18 5 22 11 4 8 9 8 17 0 8 -8 5 -15 -9 -26 -27 -20 -102 -45 -136 -45 -34
0 -28 -20 5 -21 22 0 22 0 -1 -10 -13 -5 -21 -13 -18 -18 8 -12 46 -21 46 -10
0 5 5 9 10 9 6 0 10 -9 10 -21 0 -12 -4 -18 -11 -13 -6 3 -15 0 -20 -7 -7 -11
-9 -9 -9 6 0 15 -2 17 -9 6 -5 -7 -14 -10 -20 -7 -6 4 -11 1 -12 -6 0 -7 -5
-2 -10 11 -6 15 -14 21 -25 17 -9 -3 -20 -6 -26 -6 -6 0 -7 -7 -4 -16 4 -12 2
-15 -9 -10 -8 3 -15 0 -15 -7 0 -8 -4 -7 -10 3 -10 16 -41 20 -51 7 -10 -14
-18 19 -8 34 8 12 10 12 19 -1 6 -10 10 -11 10 -3 0 7 7 10 15 7 8 -4 15 -1
15 5 0 6 -4 11 -8 11 -5 0 -17 7 -28 15 -18 15 -18 15 9 9 50 -11 28 12 -24
25 -28 8 -65 26 -82 40 -26 24 -28 30 -18 49 6 12 16 22 22 22 6 0 3 -7 -5
-16z m414 1 c19 -22 8 -25 -12 -3 -10 10 -14 18 -9 18 5 0 14 -7 21 -15z m265
5 c-3 -5 1 -10 9 -10 9 0 16 -6 17 -12 0 -7 2 -31 4 -53 3 -35 0 -42 -21 -52
-13 -6 -24 -7 -24 -2 0 5 -8 9 -19 9 -10 0 -19 6 -18 13 1 34 -4 57 -13 57 -5
0 -10 -7 -10 -16 0 -8 -4 -12 -10 -9 -14 9 -12 38 5 61 13 18 14 18 8 -4 -5
-22 -5 -22 26 -5 17 10 31 21 31 26 0 4 5 7 11 7 5 0 7 -4 4 -10z m-392 -17
c-6 -15 -63 -18 -63 -4 0 12 19 19 46 18 13 -1 20 -6 17 -14z m917 7 c0 -5 -7
-10 -15 -10 -8 0 -15 5 -15 10 0 6 7 10 15 10 8 0 15 -4 15 -10z m-710 -20 c0
-5 -2 -10 -4 -10 -3 0 -8 5 -11 10 -3 6 -1 10 4 10 6 0 11 -4 11 -10z m710
-10 c0 -5 -4 -10 -10 -10 -5 0 -10 5 -10 10 0 6 5 10 10 10 6 0 10 -4 10 -10z
m-923 -22 c-3 -8 -6 -5 -6 6 -1 11 2 17 5 13 3 -3 4 -12 1 -19z m918 -8 c3 -5
1 -10 -4 -10 -6 0 -11 5 -11 10 0 6 2 10 4 10 3 0 8 -4 11 -10z m-1195 -74 c0
-3 -4 -8 -10 -11 -5 -3 -10 -1 -10 4 0 6 5 11 10 11 6 0 10 -2 10 -4z m399
-17 c3 -12 2 -12 -11 -1 -13 10 -17 10 -21 0 -2 -7 -8 -9 -13 -5 -9 9 16 28
30 24 6 -2 12 -10 15 -18z m640 -8 c-15 -5 -22 6 -14 19 6 9 10 9 16 -1 5 -8
4 -15 -2 -18z m-979 -1 c0 -5 -4 -10 -10 -10 -5 0 -10 5 -10 10 0 6 5 10 10
10 6 0 10 -4 10 -10z m280 -16 c0 -21 4 -24 20 -19 16 5 20 2 20 -19 0 -19 4
-24 16 -19 8 3 13 12 10 19 -3 8 -9 20 -12 28 -4 12 0 13 23 7 24 -6 28 -12
26 -39 -1 -18 3 -32 8 -32 6 0 7 -4 4 -10 -10 -16 -33 -12 -38 8 -3 12 -5 10
-6 -7 -1 -21 -4 -23 -36 -18 -26 4 -35 2 -35 -8 0 -7 -3 -21 -7 -30 -5 -14 -2
-16 17 -10 13 4 25 3 29 -4 10 -15 53 -1 47 15 -9 22 9 16 35 -12 l24 -27 -23
12 c-22 12 -23 11 -13 -8 8 -14 8 -22 -1 -27 -6 -4 -8 -3 -4 4 4 7 -11 13 -41
18 -57 8 -83 20 -83 38 0 8 -9 16 -19 19 -26 6 -72 -3 -65 -14 3 -5 0 -9 -5
-9 -6 0 -11 6 -12 13 0 8 -2 9 -5 0 -4 -8 -23 -6 -72 8 -37 10 -68 19 -69 19
-1 0 0 6 3 14 3 9 -5 20 -23 29 -30 16 -25 21 29 30 15 2 25 0 22 -4 -3 -5 2
-9 10 -9 10 0 13 -6 10 -15 -9 -22 9 -18 24 5 7 12 18 17 28 13 13 -5 15 -2 9
15 -4 13 -2 22 4 22 6 0 11 -9 11 -20 0 -22 35 -28 43 -7 3 6 6 0 6 -15 1 -28
21 -40 21 -13 0 8 7 15 15 15 8 0 15 5 15 10 0 6 7 10 16 10 12 0 15 6 10 25
-4 14 -2 25 4 25 5 0 10 -12 10 -26z m-656 -26 c16 -31 10 -47 -17 -48 -5 0
-6 -4 -3 -9 3 -5 -6 -13 -22 -19 -23 -8 -30 -6 -44 13 -16 21 -15 22 13 39 16
9 34 26 39 37 14 25 16 25 34 -13z m795 -2 c-3 -3 -11 5 -18 17 -13 21 -12 21
5 5 10 -10 16 -20 13 -22z m135 16 c-1 -7 -2 -32 -2 -57 -3 -67 -17 -55 -18
16 -1 41 2 59 10 56 6 -2 11 -9 10 -15z m116 3 c-7 -8 -18 -15 -24 -15 -6 0
-2 7 8 15 25 19 32 19 16 0z m-744 -28 c-1 -12 -7 -20 -12 -18 -5 1 -7 8 -5
15 2 6 4 16 4 23 0 7 4 10 9 7 4 -3 6 -15 4 -27z m805 -6 c17 -17 28 -35 24
-41 -3 -6 -10 -8 -15 -5 -4 3 -13 -1 -19 -9 -14 -17 -37 -12 -71 15 l-25 19
28 25 c36 32 41 31 78 -4z m-943 -15 c7 -4 12 -13 12 -19 0 -8 -3 -7 -9 2 -12
19 -34 3 -28 -20 3 -11 0 -19 -6 -19 -7 0 -5 -5 3 -10 13 -9 13 -11 0 -20 -8
-5 -18 -10 -22 -10 -12 0 -22 24 -12 27 13 4 5 63 -7 63 -5 0 -9 -9 -9 -20 0
-11 -4 -20 -8 -20 -5 0 -15 -11 -22 -25 -7 -14 -15 -23 -18 -21 -2 3 6 21 18
40 12 20 19 36 15 36 -3 0 0 7 7 15 13 14 64 15 86 1z m97 -16 c3 -6 -1 -7 -9
-4 -18 7 -21 14 -7 14 6 0 13 -4 16 -10z m-438 -8 c7 -5 9 -13 3 -22 -7 -11
-11 -11 -24 -1 -24 20 -6 40 21 23z m1394 -1 c9 16 14 12 23 -18 6 -17 3 -23
-8 -23 -15 0 -37 30 -35 47 0 4 3 2 6 -6 4 -11 7 -11 14 0z m-836 -32 l20 -8
-20 0 c-11 0 -33 6 -50 14 l-30 14 30 -6 c17 -3 39 -10 50 -14z m546 -41 c0
-18 2 -43 3 -55 2 -13 -1 -23 -5 -23 -5 0 -11 10 -13 23 -7 31 -3 87 6 87 5 0
8 -15 9 -32z m-403 -5 c-10 -2 -26 -2 -35 0 -10 3 -2 5 17 5 19 0 27 -2 18 -5z
m322 -28 c0 -9 -6 -12 -16 -8 -13 5 -13 7 -2 14 17 11 18 11 18 -6z m-392 -1
c26 -7 30 -27 5 -22 -10 1 -24 -1 -30 -5 -9 -6 -13 -2 -13 12 0 23 3 24 38 15z
m132 -14 c0 -4 -9 -10 -20 -13 -11 -3 -20 -1 -20 4 0 4 -7 6 -15 3 -8 -4 -15
-1 -15 5 0 6 16 10 35 9 19 -1 35 -4 35 -8z"/>
<path d="M3700 4150 c0 -5 7 -10 15 -10 8 0 15 5 15 10 0 6 -7 10 -15 10 -8 0
-15 -4 -15 -10z"/>
<path d="M3700 4090 c0 -5 7 -10 16 -10 8 0 12 5 9 10 -3 6 -10 10 -16 10 -5
0 -9 -4 -9 -10z"/>
<path d="M3700 4040 c0 -5 4 -10 9 -10 6 0 13 5 16 10 3 6 -1 10 -9 10 -9 0
-16 -4 -16 -10z"/>
<path d="M3684 3997 c-14 -15 2 -67 21 -67 25 0 39 29 27 55 -12 27 -30 31
-48 12z"/>
<path d="M3507 3994 c-3 -3 -3 -12 0 -20 4 -11 9 -12 19 -3 8 6 11 15 8 20 -6
10 -18 12 -27 3z"/>
<path d="M3683 3917 c9 -8 17 -19 17 -26 0 -6 5 -11 10 -11 21 0 9 27 -17 39
-24 10 -26 10 -10 -2z"/>
<path d="M3731 3917 c-1 -5 4 -17 9 -28 8 -14 7 -19 -1 -19 -7 0 -10 -2 -7 -5
3 -3 13 -3 22 1 20 8 21 34 2 34 -8 0 -17 6 -19 13 -3 6 -6 8 -6 4z"/>
<path d="M3652 3888 c6 -18 28 -21 28 -4 0 9 -7 16 -16 16 -9 0 -14 -5 -12
-12z"/>
<path d="M4034 3885 c-12 -8 -25 -11 -30 -7 -5 4 -2 -1 5 -10 14 -19 26 -25
16 -8 -9 14 8 12 24 -2 11 -11 12 -10 7 0 -4 7 -2 19 4 27 16 19 0 19 -26 0z"/>
<path d="M3370 3855 c0 -9 5 -15 11 -13 6 2 11 8 11 13 0 5 -5 11 -11 13 -6 2
-11 -4 -11 -13z"/>
<path d="M3988 3823 c7 -3 16 -2 19 1 4 3 -2 6 -13 5 -11 0 -14 -3 -6 -6z"/>
<path d="M3837 3802 c5 -11 3 -13 -8 -7 -11 6 -11 5 -2 -5 12 -13 43 -7 43 9
0 5 -9 11 -19 14 -15 3 -18 1 -14 -11z"/>
<path d="M3926 3754 c-5 -12 -2 -15 10 -10 8 3 18 6 20 6 3 0 2 5 -1 10 -9 15
-22 12 -29 -6z"/>
<path d="M3375 3750 c3 -5 8 -10 11 -10 2 0 4 5 4 10 0 6 -5 10 -11 10 -5 0
-7 -4 -4 -10z"/>
<path d="M3820 3745 c-12 -15 -5 -55 11 -55 5 0 4 9 -3 19 -9 15 -9 23 1 35 8
9 11 16 8 16 -2 0 -10 -7 -17 -15z"/>
<path d="M3975 3750 c-3 -6 1 -7 9 -4 18 7 21 14 7 14 -6 0 -13 -4 -16 -10z"/>
<path d="M3357 3729 c7 -7 15 -10 18 -7 3 3 -2 9 -12 12 -14 6 -15 5 -6 -5z"/>
<path d="M3556 3714 c-9 -22 -8 -24 9 -18 8 4 15 12 15 20 0 19 -16 18 -24 -2z"/>
<path d="M3840 3720 c0 -5 7 -10 15 -10 8 0 15 5 15 10 0 6 -7 10 -15 10 -8 0
-15 -4 -15 -10z"/>
<path d="M3356 3687 c3 -10 9 -15 12 -12 3 3 0 11 -7 18 -10 9 -11 8 -5 -6z"/>
<path d="M3935 3660 c-3 -5 -1 -10 4 -10 6 0 11 5 11 10 0 6 -2 10 -4 10 -3 0
-8 -4 -11 -10z"/>
<path d="M3363 3653 c-10 -4 -9 -8 1 -19 18 -18 26 -18 26 0 0 18 -11 25 -27
19z"/>
<path d="M3787 3523 c-4 -3 -7 -13 -7 -22 0 -12 3 -11 13 4 13 17 14 17 20 -6
3 -13 8 -21 11 -18 3 3 3 15 -1 27 -5 21 -23 29 -36 15z"/>
<path d="M3785 3471 c-7 -12 12 -24 25 -16 11 7 4 25 -10 25 -5 0 -11 -4 -15
-9z"/>
<path d="M3698 3443 c7 -3 16 -2 19 1 4 3 -2 6 -13 5 -11 0 -14 -3 -6 -6z"/>
<path d="M3731 3374 c0 -11 3 -14 6 -6 3 7 2 16 -1 19 -3 4 -6 -2 -5 -13z"/>
<path d="M3730 3340 c0 -5 5 -10 11 -10 5 0 7 5 4 10 -3 6 -8 10 -11 10 -2 0
-4 -4 -4 -10z"/>
<path d="M3714 3309 c-3 -5 0 -8 8 -7 7 2 12 -2 11 -9 -2 -7 4 -10 12 -7 8 4
15 10 15 14 0 12 -39 19 -46 9z"/>
<path d="M3685 3263 c-19 -15 -19 -15 3 -8 13 4 29 2 38 -6 8 -6 17 -10 20 -7
2 3 -6 12 -19 21 -20 13 -25 13 -42 0z"/>
<path d="M3666 3188 c-5 -25 -9 -30 -16 -18 -6 10 -8 3 -7 -23 1 -23 7 -37 15
-37 7 0 10 -5 6 -12 -5 -7 -3 -8 5 -3 8 4 11 21 9 41 -3 26 0 34 12 34 12 0
16 -8 14 -28 -1 -20 5 -33 20 -42 11 -7 18 -9 14 -5 -4 5 -3 14 3 21 11 13 2
84 -10 84 -4 0 -12 -5 -18 -11 -8 -8 -15 -5 -26 10 -14 21 -14 21 -21 -11z"/>
<path d="M3772 3190 c0 -19 2 -27 5 -17 2 9 2 25 0 35 -3 9 -5 1 -5 -18z"/>
<path d="M3767 3133 c-4 -3 -7 -16 -6 -27 0 -19 1 -19 10 3 10 24 8 36 -4 24z"/>
<path d="M3625 3090 c3 -5 8 -10 11 -10 2 0 4 5 4 10 0 6 -5 10 -11 10 -5 0
-7 -4 -4 -10z"/>
<path d="M3820 3000 c8 -5 20 -10 25 -10 6 0 3 5 -5 10 -8 5 -19 10 -25 10 -5
0 -3 -5 5 -10z"/>
<path d="M3725 2991 c-3 -5 -1 -12 5 -16 5 -3 10 1 10 9 0 18 -6 21 -15 7z"/>
<path d="M3810 2946 c14 -8 28 -12 33 -9 11 7 7 9 -28 17 l-30 6 25 -14z"/>
<path d="M3885 2950 c3 -5 8 -10 11 -10 2 0 4 5 4 10 0 6 -5 10 -11 10 -5 0
-7 -4 -4 -10z"/>
<path d="M3707 2843 c-4 -3 -7 -11 -7 -17 0 -6 5 -5 12 2 6 6 9 14 7 17 -3 3
-9 2 -12 -2z"/>
<path d="M3582 3508 c-16 -19 -3 -58 18 -58 27 0 34 31 12 52 -15 16 -21 17
-30 6z m28 -18 c0 -5 -7 -10 -16 -10 -8 0 -12 5 -9 10 3 6 10 10 16 10 5 0 9
-4 9 -10z"/>
<path d="M3470 3271 c0 -11 -11 -28 -25 -39 -13 -11 -22 -22 -19 -24 3 -3 18
8 34 24 30 29 39 58 20 58 -5 0 -10 -9 -10 -19z"/>
<path d="M3475 3210 c-3 -5 -1 -10 4 -10 6 0 11 5 11 10 0 6 -2 10 -4 10 -3 0
-8 -4 -11 -10z"/>
<path d="M3454 3192 c3 -6 3 -12 -1 -15 -5 -2 -2 -2 5 -1 6 2 12 -3 12 -11 0
-10 9 -15 28 -14 16 1 20 3 10 6 -19 5 -24 18 -9 27 5 4 12 0 14 -6 4 -9 6
-10 6 -1 1 16 -16 26 -24 13 -4 -7 -13 -6 -27 1 -12 7 -18 7 -14 1z"/>
<path d="M3445 3150 c3 -5 8 -10 11 -10 2 0 4 5 4 10 0 6 -5 10 -11 10 -5 0
-7 -4 -4 -10z"/>
<path d="M4031 2924 c0 -11 3 -14 6 -6 3 7 2 16 -1 19 -3 4 -6 -2 -5 -13z"/>
<path d="M3475 2680 c3 -5 8 -10 11 -10 2 0 4 5 4 10 0 6 -5 10 -11 10 -5 0
-7 -4 -4 -10z"/>
<path d="M3805 2820 c3 -5 8 -10 11 -10 2 0 4 5 4 10 0 6 -5 10 -11 10 -5 0
-7 -4 -4 -10z"/>
<path d="M4368 2833 c7 -3 16 -2 19 1 4 3 -2 6 -13 5 -11 0 -14 -3 -6 -6z"/>
<path d="M3991 2731 c-8 -5 -9 -11 -3 -15 5 -3 12 1 16 9 6 17 6 18 -13 6z"/>
<path d="M3910 2670 c0 -5 5 -10 11 -10 5 0 7 5 4 10 -3 6 -8 10 -11 10 -2 0
-4 -4 -4 -10z"/>
<path d="M3509 2623 c-12 -16 -12 -17 2 -6 12 10 18 10 29 0 12 -10 12 -9 1 6
-7 9 -15 17 -16 17 -1 0 -9 -8 -16 -17z"/>
<path d="M3618 2568 c6 -6 18 -8 28 -6 14 3 12 5 -9 10 -19 3 -25 2 -19 -4z"/>
<path d="M3730 2559 c0 -5 5 -7 10 -4 6 3 10 8 10 11 0 2 -4 4 -10 4 -5 0 -10
-5 -10 -11z"/>
<path d="M3590 2551 c0 -8 41 -23 47 -17 2 1 -8 8 -22 14 -14 6 -25 8 -25 3z"/>
<path d="M4468 2588 c5 -5 16 -8 23 -6 8 3 3 7 -10 11 -17 4 -21 3 -13 -5z"/>
<path d="M3710 2125 c0 -23 4 -25 43 -24 l42 1 -32 14 c-18 8 -33 19 -33 24 0
6 -4 10 -10 10 -5 0 -10 -11 -10 -25z"/>
<path d="M3780 2144 c0 -7 7 -17 15 -24 8 -7 12 -16 9 -21 -3 -5 -1 -9 5 -9
20 0 18 16 -5 40 -13 13 -24 20 -24 14z"/>
<path d="M3614 2109 c-3 -5 6 -9 20 -9 31 0 34 6 6 13 -11 3 -23 1 -26 -4z"/>
<path d="M2235 4716 c-26 -11 -101 -96 -130 -146 -8 -13 -6 -13 7 -2 14 12 31
3 123 -60 74 -51 104 -77 100 -88 -7 -20 49 44 86 99 37 56 38 93 3 120 -33
26 -54 26 -85 2 l-24 -19 3 38 c4 34 1 40 -25 53 -24 13 -33 13 -58 3z m13
-66 c37 -22 50 -46 34 -62 -7 -7 -26 1 -61 24 -39 26 -48 37 -39 46 16 16 28
15 66 -8z m129 -76 c33 -25 43 -57 22 -69 -5 -4 -35 9 -65 30 -46 30 -53 39
-44 51 18 21 49 17 87 -12z"/>
<path d="M5175 4655 l-40 -34 48 14 c36 11 54 12 69 4 11 -6 16 -14 12 -18
-174 -149 -196 -164 -218 -152 -11 7 4 -12 34 -43 50 -52 78 -75 51 -42 -10
12 7 30 91 101 94 78 104 84 112 66 6 -14 3 -32 -13 -60 -25 -50 -16 -52 29
-6 l33 34 -84 85 -84 85 -40 -34z"/>
<path d="M1951 4344 c-21 -39 -25 -54 -14 -50 22 9 243 -94 243 -113 0 -9 14
8 30 38 27 49 41 85 22 53 -12 -18 -255 95 -248 115 12 31 -5 9 -33 -43z"/>
<path d="M4620 4385 c-16 -20 -8 -29 19 -20 12 4 18 12 14 21 -7 18 -17 18
-33 -1z"/>
<path d="M2712 4320 l-22 -28 31 -16 c18 -9 38 -16 46 -16 25 0 13 21 -19 35
-32 14 -26 19 19 16 11 -1 24 3 28 9 5 9 1 10 -13 6 -13 -4 -22 -1 -26 9 -8
21 -18 18 -44 -15z"/>
<path d="M4673 4326 c4 -9 0 -12 -12 -9 -11 3 -21 -4 -29 -21 -13 -28 2 -46
21 -27 9 9 8 14 -3 21 -12 8 -11 10 6 10 20 0 44 17 44 32 0 4 -7 8 -16 8 -10
0 -14 -6 -11 -14z"/>
<path d="M5330 4314 c-63 -13 -125 -22 -137 -21 -20 4 -21 3 -6 -20 17 -26 25
-30 17 -9 -3 9 5 15 27 20 53 10 63 7 82 -25 17 -31 17 -31 -12 -64 -22 -26
-32 -31 -41 -22 -7 7 4 -14 25 -45 37 -57 49 -70 40 -45 -3 6 36 61 86 120 91
108 103 138 57 136 -13 -1 -75 -12 -138 -25z m49 -33 c-19 -22 -36 -40 -39
-40 -3 -1 -13 12 -23 28 l-17 29 48 10 c26 5 51 10 56 11 4 0 -7 -17 -25 -38z"/>
<path d="M4696 4311 c-8 -12 21 -34 34 -26 8 5 8 11 -1 21 -13 16 -25 18 -33
5z"/>
<path d="M2810 4296 c0 -9 5 -16 10 -16 6 0 10 4 10 9 0 6 -4 13 -10 16 -5 3
-10 -1 -10 -9z"/>
<path d="M4662 4260 c-18 -30 -15 -32 18 -15 17 9 28 20 25 25 -10 16 -29 11
-43 -10z"/>
<path d="M4755 4260 c-4 -6 -2 -17 4 -23 15 -15 25 -2 13 19 -7 12 -11 13 -17
4z"/>
<path d="M4681 4221 c-23 -18 -23 -18 -2 -24 32 -8 61 3 61 24 0 24 -28 24
-59 0z"/>
<path d="M2603 4178 c-6 -13 -7 -32 -3 -43 5 -11 6 -30 3 -41 -4 -17 3 -24 38
-38 39 -16 44 -16 55 -2 6 9 19 16 28 16 9 0 16 8 16 20 0 14 5 18 18 14 9 -3
6 2 -8 10 -14 8 -36 15 -49 16 -18 0 -22 -4 -16 -17 5 -15 4 -16 -6 -5 -7 6
-24 12 -38 13 -21 1 -19 3 12 11 20 6 37 14 37 19 0 13 -14 11 -28 -3 -11 -11
-13 -8 -28 40 -5 19 -20 14 -31 -10z"/>
<path d="M1873 4175 c-13 -9 -30 -43 -43 -82 -43 -134 -41 -123 -22 -112 21
12 258 -52 255 -70 -2 -6 1 -11 5 -11 4 0 13 19 19 43 7 23 15 51 18 62 5 15
4 16 -3 6 -10 -14 -16 -13 -104 10 -29 7 -35 13 -31 29 6 23 14 24 84 8 49
-11 52 -11 71 12 25 30 20 69 -12 87 -22 13 -23 13 -7 0 28 -24 20 -28 -42
-21 -50 5 -60 4 -68 -11 -9 -15 -11 -13 -16 13 -4 22 -14 33 -38 41 -40 14
-40 14 -66 -4z m57 -80 c19 -10 30 -23 30 -37 0 -18 -4 -20 -39 -14 -22 3 -52
10 -66 16 -22 8 -24 13 -15 30 13 24 49 26 90 5z"/>
<path d="M4600 4175 c-14 -8 -21 -14 -16 -15 5 0 2 -7 -5 -17 -8 -9 -9 -14 -4
-12 6 2 27 11 48 19 20 8 36 19 34 25 -6 16 -30 16 -57 0z"/>
<path d="M4684 4163 c-4 -10 -6 -21 -6 -25 1 -5 -2 -8 -7 -8 -5 0 -16 -11 -25
-25 -16 -24 -15 -24 6 -16 13 4 28 19 35 32 7 13 20 24 30 24 10 0 19 8 21 18
3 12 -3 17 -21 17 -14 0 -28 -8 -33 -17z"/>
<path d="M4838 4134 c6 -11 22 -30 37 -44 l28 -25 -25 39 c-25 41 -60 66 -40
30z"/>
<path d="M5569 4135 c-5 -26 -242 -120 -247 -99 -2 8 -7 14 -12 14 -10 0 33
-111 61 -156 24 -40 66 -58 102 -45 31 12 51 45 44 73 -5 18 -4 19 12 4 38
-35 112 -8 111 40 -1 32 -67 190 -71 169z m41 -109 c0 -20 -9 -28 -46 -42 -42
-16 -46 -16 -61 -1 -9 9 -15 18 -12 20 3 4 107 45 117 46 1 1 2 -10 2 -23z
m-122 -62 c-3 -19 -60 -53 -88 -53 -20 -1 -38 11 -42 28 -4 16 113 64 125 51
5 -4 7 -16 5 -26z"/>
<path d="M4739 4116 c-14 -31 -1 -53 25 -43 20 8 21 41 1 57 -12 10 -17 7 -26
-14z"/>
<path d="M4792 4103 c2 -22 8 -27 31 -29 15 0 30 3 33 8 9 14 -26 48 -48 48
-15 0 -19 -6 -16 -27z"/>
<path d="M4598 4103 c7 -3 16 -2 19 1 4 3 -2 6 -13 5 -11 0 -14 -3 -6 -6z"/>
<path d="M2751 4074 c0 -11 3 -14 6 -6 3 7 2 16 -1 19 -3 4 -6 -2 -5 -13z"/>
<path d="M4595 4070 c-3 -5 -2 -10 4 -10 5 0 13 5 16 10 3 6 2 10 -4 10 -5 0
-13 -4 -16 -10z"/>
<path d="M4828 4058 c-21 -10 -38 -20 -38 -22 0 -4 92 12 97 18 2 2 -2 7 -9
13 -9 6 -25 4 -50 -9z"/>
<path d="M2481 3980 c-27 -53 -29 -61 -15 -67 11 -4 23 3 36 20 11 15 28 27
39 27 10 0 19 7 19 15 0 18 -29 65 -40 65 -4 0 -21 -27 -39 -60z"/>
<path d="M4725 4025 c-40 -13 -40 -13 -9 -14 17 -1 37 6 44 14 7 8 11 15 9 14
-2 -1 -22 -7 -44 -14z"/>
<path d="M2570 3981 c0 -14 6 -17 25 -13 28 5 33 17 9 26 -26 10 -34 7 -34
-13z"/>
<path d="M2670 3972 c0 -5 7 -16 16 -23 14 -12 16 -11 13 5 -4 20 -29 35 -29
18z"/>
<path d="M4895 3959 l-40 -18 38 -1 c65 0 37 -22 -59 -45 -79 -19 -86 -23 -59
-29 17 -4 36 -9 43 -12 6 -2 12 1 12 6 0 6 16 10 35 10 19 0 55 5 79 12 l44
12 -21 43 c-12 24 -23 43 -26 42 -4 0 -24 -9 -46 -20z"/>
<path d="M2644 3962 c2 -4 -9 -14 -25 -21 -39 -17 -32 -35 15 -39 62 -5 72 3
44 37 -20 26 -47 44 -34 23z"/>
<path d="M2524 3930 c0 -13 7 -20 19 -20 12 0 17 6 15 17 -5 26 -34 28 -34 3z"/>
<path d="M2714 3935 c-8 -20 4 -35 27 -35 21 0 25 20 7 38 -16 16 -27 15 -34
-3z"/>
<path d="M1746 3873 c-9 -55 -8 -91 3 -75 6 10 23 12 67 7 l59 -7 -3 -40 c-4
-39 -5 -40 -34 -34 -17 3 -45 6 -64 6 -23 0 -34 5 -37 18 -3 9 -5 1 -6 -19 0
-20 -3 -49 -5 -65 -2 -16 -2 -24 1 -18 2 7 19 10 41 8 20 -3 79 -8 131 -13 53
-5 97 -14 101 -21 4 -7 10 1 14 20 7 38 7 101 -1 83 -5 -14 -37 -16 -95 -7
-33 6 -38 10 -38 33 0 41 10 47 77 43 47 -3 63 -8 66 -20 3 -10 5 -3 6 14 0
17 4 47 7 65 3 19 2 29 -3 22 -12 -16 -254 4 -269 23 -9 11 -13 6 -18 -23z"/>
<path d="M4977 3864 c-3 -4 -23 -8 -44 -10 -63 -6 -93 -15 -93 -28 0 -7 15
-30 33 -51 30 -34 39 -39 83 -41 27 -1 57 2 66 7 16 8 16 13 1 57 -17 50 -35
77 -46 66z"/>
<path d="M5659 3841 c-7 -19 -253 -73 -267 -59 -6 6 0 -33 13 -86 12 -53 25
-99 27 -102 3 -3 27 -1 54 4 l49 9 -41 11 c-41 12 -66 32 -77 63 -4 13 17 21
125 43 132 28 147 27 148 -8 0 -5 2 -7 4 -5 3 3 -3 36 -13 74 -10 39 -20 63
-22 56z"/>
<path d="M2417 3823 c-3 -10 -8 -27 -11 -39 -6 -20 -2 -21 91 -26 105 -6 174
1 174 17 0 12 -84 25 -167 25 -50 1 -61 4 -60 17 2 23 -21 28 -27 6z"/>
<path d="M4760 3826 c0 -9 7 -16 15 -16 18 0 20 -16 3 -23 -8 -4 -4 -8 9 -12
13 -4 20 -11 18 -16 -7 -10 72 -35 81 -26 8 8 -47 75 -63 76 -6 1 -13 5 -15
10 -1 4 -13 12 -25 15 -17 6 -23 3 -23 -8z"/>
<path d="M5028 3683 c7 -3 16 -2 19 1 4 3 -2 6 -13 5 -11 0 -14 -3 -6 -6z"/>
<path d="M4868 3633 c-20 -3 -28 -10 -28 -24 0 -26 12 -24 40 6 13 14 22 24
19 24 -2 -1 -16 -4 -31 -6z"/>
<path d="M5000 3630 c0 -5 -3 -9 -7 -8 -5 1 -19 -2 -32 -6 -16 -6 -26 -4 -32
5 -7 11 -17 6 -44 -23 -19 -20 -35 -39 -35 -42 0 -16 34 -3 56 22 26 28 23 11
-4 -20 -7 -9 -11 -22 -7 -27 9 -15 45 -14 45 2 0 9 2 9 8 0 4 -7 23 -14 40
-16 35 -4 60 -22 48 -34 -4 -4 -16 -2 -26 5 -22 13 -60 16 -60 5 1 -19 18 -28
60 -31 25 -2 53 -8 64 -14 18 -10 18 -7 12 53 -15 141 -15 139 -52 139 -19 0
-34 -4 -34 -10z m-40 -59 c0 -6 -4 -13 -10 -16 -5 -3 -10 1 -10 9 0 9 5 16 10
16 6 0 10 -4 10 -9z m90 -51 c0 -5 -5 -10 -11 -10 -5 0 -7 5 -4 10 3 6 8 10
11 10 2 0 4 -4 4 -10z"/>
<path d="M2465 3620 c3 -5 14 -10 23 -10 15 0 15 2 2 10 -20 13 -33 13 -25 0z"/>
<path d="M4806 3615 c-3 -8 -1 -15 4 -15 6 0 10 7 10 15 0 8 -2 15 -4 15 -2 0
-6 -7 -10 -15z"/>
<path d="M2362 3600 c0 -14 2 -19 5 -12 2 6 2 18 0 25 -3 6 -5 1 -5 -13z"/>
<path d="M2725 3570 c-4 -6 -3 -16 3 -22 6 -6 12 -6 17 2 4 6 3 16 -3 22 -6 6
-12 6 -17 -2z"/>
<path d="M5698 3559 c-6 -19 -258 -35 -270 -17 -5 7 -6 -23 -2 -72 9 -134 7
-130 62 -130 l47 1 -31 13 c-53 24 -84 86 -48 100 30 11 114 7 114 -6 0 -18
-12 -33 -35 -46 -19 -11 -19 -11 5 -11 14 0 43 3 65 8 38 6 38 7 14 14 -26 6
-46 34 -34 45 3 3 32 8 65 10 56 4 60 3 60 -17 0 -32 -17 -59 -48 -75 l-27
-15 25 0 c65 -1 66 1 58 106 -6 93 -12 117 -20 92z"/>
<path d="M1831 3533 c-12 -14 -24 -38 -27 -52 -13 -66 -48 -97 -79 -71 -28 23
-18 66 23 100 l37 31 -39 -3 -40 -3 -4 -57 c-3 -53 -1 -60 26 -88 32 -32 64
-38 105 -19 26 12 35 26 62 102 15 41 20 47 45 47 30 0 50 -22 50 -56 0 -10
-19 -36 -43 -58 l-42 -41 45 3 45 4 0 70 c0 64 -2 72 -28 94 -41 35 -108 34
-136 -3z"/>
<path d="M4671 3540 c-1 -8 -15 -24 -31 -35 -16 -11 -30 -28 -30 -37 0 -10 -4
-18 -10 -18 -19 0 -10 -15 26 -44 33 -26 35 -26 24 -6 -15 29 -6 88 16 104 9
7 14 21 11 32 -3 12 -5 13 -6 4z"/>
<path d="M2671 3526 c-9 -10 -8 -15 2 -19 8 -3 13 3 13 14 0 23 0 23 -15 5z"/>
<path d="M2733 3499 c-13 -5 -23 -15 -23 -24 0 -8 -4 -15 -10 -15 -5 0 -10 -3
-10 -7 0 -5 15 -9 34 -10 37 -3 51 13 38 46 -5 14 -12 17 -29 10z"/>
<path d="M4903 3484 c-3 -8 4 -25 17 -40 25 -26 19 -34 -7 -9 -8 9 -18 13 -22
10 -6 -7 27 -35 41 -35 4 0 12 9 18 20 9 16 8 20 -6 20 -12 0 -15 6 -10 25 5
19 2 25 -9 25 -9 0 -18 -7 -22 -16z"/>
<path d="M2646 3471 c-3 -4 1 -16 8 -26 12 -17 13 -16 18 8 5 26 -13 39 -26
18z"/>
<path d="M2570 3441 c-17 -5 -21 -9 -12 -15 6 -4 22 0 34 8 24 17 19 18 -22 7z"/>
<path d="M2700 3420 c-9 -6 -10 -10 -3 -10 6 0 15 5 18 10 8 12 4 12 -15 0z"/>
<path d="M2670 3407 c0 -7 -17 -18 -37 -24 l-38 -10 45 -1 c25 0 53 3 64 7 17
7 16 9 -8 24 -20 13 -26 14 -26 4z"/>
<path d="M4760 3335 c0 -23 29 -30 48 -11 15 15 15 16 -1 16 -10 0 -15 -4 -12
-10 3 -5 -1 -10 -10 -10 -9 0 -14 4 -10 9 3 5 1 12 -5 16 -5 3 -10 -1 -10 -10z"/>
<path d="M1846 3245 c-12 -66 -18 -71 -61 -47 -20 12 -38 22 -41 22 -2 0 7
-18 22 -41 14 -22 24 -42 22 -43 -2 -1 -23 -8 -48 -16 l-45 -13 35 -9 c64 -16
63 -14 34 -64 l-27 -46 42 27 c24 14 45 24 48 22 2 -3 10 -27 17 -54 l13 -48
7 40 c11 64 18 70 57 46 48 -30 53 -26 25 16 -14 20 -23 40 -21 44 3 3 21 10
40 13 47 9 44 23 -5 31 -22 4 -40 9 -40 11 0 2 11 22 25 44 14 22 23 40 20 40
-3 0 -23 -11 -45 -25 l-40 -25 -6 27 c-3 16 -9 42 -13 58 l-8 30 -7 -40z"/>
<path d="M5540 3217 l-13 -48 -34 21 c-46 27 -48 26 -24 -14 12 -18 21 -36 21
-39 0 -4 -19 -12 -42 -18 l-43 -12 30 -9 c17 -5 36 -11 43 -14 11 -3 9 -12 -7
-38 -29 -47 -26 -50 17 -21 l37 25 14 -47 15 -48 9 47 9 48 46 -28 47 -27 -22
31 c-34 48 -32 56 17 69 l45 12 -48 13 -47 12 26 45 26 44 -41 -27 c-23 -15
-43 -25 -45 -23 -2 2 -8 24 -14 49 l-9 45 -13 -48z"/>
<path d="M2490 1894 c-47 -21 -50 -24 -20 -19 84 14 129 17 145 8 14 -8 -10
-24 -131 -82 -125 -61 -152 -70 -171 -62 -13 6 -23 9 -23 6 0 -6 154 -85 165
-84 5 0 -1 5 -14 10 -20 8 -6 17 130 85 135 67 154 73 167 60 14 -13 12 -19
-12 -50 -15 -20 -25 -36 -23 -36 2 0 28 13 57 29 l52 29 -88 47 c-49 27 -103
56 -120 66 -40 24 -47 24 -114 -7z"/>
<path d="M4800 1849 c-85 -26 -156 -48 -158 -48 -4 -1 75 -71 81 -71 3 0 0 13
-6 29 -12 34 -5 56 20 63 14 4 49 -21 123 -86 97 -84 102 -91 80 -97 -14 -4
-18 -7 -10 -8 8 0 56 13 105 29 50 16 77 27 62 25 -25 -5 -42 6 -128 81 -122
106 -120 129 8 84 72 -25 86 -25 48 0 -16 11 -39 26 -50 34 -18 12 -37 8 -175
-35z"/>
<path d="M3013 1763 c9 -2 17 -8 17 -11 0 -4 -39 -47 -88 -95 -61 -61 -95 -87
-112 -87 -14 -1 17 -12 69 -25 52 -14 97 -23 99 -20 3 3 -2 5 -11 5 -26 0 -21
12 26 58 40 39 46 42 71 32 l28 -10 -31 -35 c-49 -56 -38 -77 48 -91 36 -6
109 11 98 23 -3 2 -16 -2 -31 -8 -39 -18 -44 -3 -11 31 25 26 28 33 17 50 -11
18 -9 20 23 20 24 0 44 9 67 29 31 28 32 31 16 47 -14 15 -277 95 -303 93 -5
-1 -2 -3 8 -6z m182 -57 c18 -13 18 -15 -12 -45 -25 -25 -40 -31 -72 -31 -23
0 -41 3 -41 7 0 14 75 83 90 83 9 0 25 -6 35 -14z"/>
<path d="M4364 1730 c-96 -8 -157 -34 -162 -68 -8 -51 61 -82 182 -82 73 0
116 -13 116 -34 0 -42 -114 -48 -202 -12 -32 13 -58 22 -58 20 0 -1 9 -18 20
-37 20 -33 22 -34 63 -26 23 4 63 8 89 9 65 0 127 26 134 56 15 61 -25 84
-163 93 -60 4 -114 11 -121 15 -24 15 -11 35 30 46 48 13 96 6 150 -21 21 -11
38 -17 38 -14 0 8 -30 65 -33 64 -1 -1 -39 -5 -83 -9z"/>
<path d="M3593 1674 c21 -7 21 -8 1 -95 -18 -79 -13 -92 41 -115 47 -19 164
-28 213 -15 46 13 66 37 77 91 18 92 25 110 48 111 12 1 0 5 -28 10 -27 4 -51
6 -54 3 -2 -2 3 -4 12 -4 9 0 18 -4 22 -9 8 -15 -25 -154 -42 -173 -31 -35
-154 -34 -173 2 -7 13 -5 44 8 102 17 78 20 83 43 80 13 -2 21 -1 17 3 -4 4
-51 9 -105 11 -54 2 -90 1 -80 -2z"/>
<path d="M2638 1173 c-38 -2 -68 -7 -68 -11 0 -4 -3 -17 -6 -29 -4 -13 -2 -23
4 -23 5 0 13 11 16 25 4 14 13 25 21 25 24 0 21 -125 -2 -139 -14 -8 -8 -10
27 -10 25 0 39 3 33 6 -18 7 -18 146 0 141 6 -3 13 -14 15 -26 5 -33 22 -26
22 8 0 17 5 30 11 30 7 0 9 -28 7 -80 -3 -74 -2 -80 17 -80 17 0 20 7 20 52 0
40 4 53 15 53 11 0 15 -13 15 -53 0 -46 2 -52 21 -52 19 0 20 4 14 48 -8 61
-17 75 -46 69 -21 -4 -24 0 -24 24 0 24 -4 29 -22 27 -13 -1 -53 -3 -90 -5z"/>
<path d="M3210 1165 c0 -8 7 -15 15 -15 8 0 15 7 15 15 0 8 -7 15 -15 15 -8 0
-15 -7 -15 -15z"/>
<path d="M4110 1165 c0 -8 7 -15 15 -15 8 0 15 7 15 15 0 8 -7 15 -15 15 -8 0
-15 -7 -15 -15z"/>
<path d="M4490 1165 c0 -8 7 -15 15 -15 8 0 15 7 15 15 0 8 -7 15 -15 15 -8 0
-15 -7 -15 -15z"/>
<path d="M4670 1165 c0 -8 7 -15 15 -15 8 0 15 7 15 15 0 8 -7 15 -15 15 -8 0
-15 -7 -15 -15z"/>
<path d="M2856 1114 c-19 -18 -21 -75 -4 -92 15 -15 65 -16 74 0 5 8 2 9 -11
5 -20 -8 -45 8 -45 29 0 9 11 14 30 14 25 0 30 4 30 24 0 36 -46 49 -74 20z
m54 -25 c0 -5 -9 -9 -20 -9 -19 0 -27 20 -13 33 7 8 33 -11 33 -24z"/>
<path d="M2955 1069 l0 -59 30 1 c17 0 24 3 18 6 -8 2 -13 22 -13 44 0 32 3
39 20 39 38 0 21 26 -17 27 l-38 2 0 -60z"/>
<path d="M3056 1114 c-19 -18 -21 -75 -4 -92 15 -15 65 -16 74 0 5 8 2 9 -11
5 -20 -8 -45 8 -45 29 0 9 11 14 30 14 25 0 30 4 30 24 0 36 -46 49 -74 20z
m54 -25 c0 -5 -9 -9 -20 -9 -19 0 -27 20 -13 33 7 8 33 -11 33 -24z"/>
<path d="M3205 1070 c0 -53 2 -60 20 -60 18 0 20 5 17 60 -3 48 -7 60 -20 60
-14 0 -17 -11 -17 -60z"/>
<path d="M3280 1115 c-16 -20 -6 -43 25 -57 27 -12 31 -23 13 -34 -6 -4 -17 1
-24 11 -16 21 -30 14 -21 -10 8 -19 60 -20 76 -1 15 18 5 41 -25 54 -13 7 -24
15 -24 20 0 17 13 22 27 10 15 -12 28 -5 18 11 -9 16 -51 13 -65 -4z"/>
<path d="M3425 1044 c0 -79 1 -84 21 -84 17 0 20 5 17 24 -4 20 0 25 18 28 33
4 56 49 43 85 -8 25 -15 28 -54 30 l-45 1 0 -84z m75 27 c0 -26 -16 -51 -32
-51 -10 0 -11 84 -1 93 12 12 33 -15 33 -42z"/>
<path d="M3567 1112 c-9 -10 -17 -30 -17 -45 0 -59 71 -76 100 -24 13 24 13
30 0 55 -19 33 -59 41 -83 14z m57 -27 c9 -35 -10 -70 -30 -54 -17 14 -19 60
-2 77 15 15 24 8 32 -23z"/>
<path d="M3690 1073 c22 -70 41 -75 54 -13 l10 45 11 -45 c6 -25 17 -45 24
-45 7 0 21 26 31 58 18 56 17 57 -2 57 -10 0 -16 -4 -13 -10 3 -5 3 -27 -1
-47 l-8 -38 -11 45 c-14 58 -36 59 -50 1 l-10 -43 -11 41 c-8 29 -8 42 0 45 6
2 -1 5 -15 5 l-27 1 18 -57z"/>
<path d="M3866 1114 c-19 -18 -21 -75 -4 -92 15 -15 65 -16 74 0 5 8 2 9 -11
5 -20 -8 -45 8 -45 29 0 9 11 14 30 14 25 0 30 4 30 24 0 36 -46 49 -74 20z
m54 -25 c0 -5 -9 -9 -20 -9 -19 0 -27 20 -13 33 7 8 33 -11 33 -24z"/>
<path d="M3965 1069 l0 -59 30 1 c17 0 24 3 18 6 -8 2 -13 22 -13 44 0 32 3
39 20 39 38 0 21 26 -17 27 l-38 2 0 -60z"/>
<path d="M4105 1070 c0 -53 2 -60 20 -60 18 0 20 5 17 60 -3 48 -7 60 -20 60
-14 0 -17 -11 -17 -60z"/>
<path d="M4175 1069 c0 -52 2 -59 20 -59 17 0 20 7 20 52 0 40 4 53 15 53 11
0 15 -13 15 -53 0 -46 2 -52 20 -52 18 0 20 5 18 38 -8 80 -9 81 -61 80 l-47
0 0 -59z"/>
<path d="M4369 1114 c-9 -11 -10 -20 -2 -32 6 -11 7 -31 1 -56 -12 -53 -5 -66
35 -66 73 0 95 62 24 68 -42 4 -54 32 -12 32 24 0 51 31 38 44 -3 3 -1 6 5 6
7 0 12 4 12 8 0 17 -87 13 -101 -4z m58 -10 c8 -21 -13 -42 -28 -27 -13 13 -5
43 11 43 6 0 13 -7 17 -16z m13 -108 c0 -8 -7 -17 -16 -20 -19 -7 -47 12 -38
25 9 15 54 10 54 -5z"/>
<path d="M4485 1070 c0 -53 2 -60 20 -60 18 0 20 5 17 60 -3 48 -7 60 -20 60
-14 0 -17 -11 -17 -60z"/>
<path d="M4542 1123 c2 -5 12 -32 23 -61 24 -64 42 -64 64 0 20 60 36 58 36
-5 0 -40 3 -47 20 -47 18 0 20 6 17 60 l-4 60 -44 0 c-27 0 -43 -4 -39 -10 3
-5 3 -27 -1 -47 l-7 -38 -13 30 c-7 17 -11 38 -8 48 4 13 -1 17 -21 17 -15 0
-25 -3 -23 -7z"/>
<path d="M4735 1069 c0 -52 2 -59 20 -59 17 0 20 7 20 52 0 40 4 53 15 53 11
0 15 -13 15 -53 0 -46 2 -52 20 -52 18 0 20 5 18 38 -8 80 -9 81 -61 80 l-47
0 0 -59z"/>
<path d="M4879 1114 c-9 -11 -10 -20 -2 -32 6 -11 7 -31 1 -56 -12 -53 -5 -66
35 -66 73 0 95 62 24 68 -42 4 -54 32 -12 32 24 0 51 31 38 44 -3 3 -1 6 5 6
7 0 12 4 12 8 0 17 -87 13 -101 -4z m58 -10 c8 -21 -13 -42 -28 -27 -13 13 -5
43 11 43 6 0 13 -7 17 -16z m13 -108 c0 -8 -7 -17 -16 -20 -19 -7 -47 12 -38
25 9 15 54 10 54 -5z"/>
<path d="M4995 1031 c-7 -12 12 -24 25 -16 11 7 4 25 -10 25 -5 0 -11 -4 -15
-9z"/>
</g>
</svg>
